<svg viewBox="0 0 800 600" fill="none" xmlns="http://www.w3.org/2000/svg">
  <defs>
    <linearGradient id="sky" x1="0" y1="0" x2="0" y2="1">
      <stop offset="0%" stop-color="#ffe3b5" />
      <stop offset="100%" stop-color="#f7f8fa" />
    </linearGradient>
    <linearGradient id="sun" x1="0" y1="0" x2="1" y2="1">
      <stop offset="0%" stop-color="#FF9C35" />
      <stop offset="100%" stop-color="#FF6B35" />
    </linearGradient>
    <linearGradient id="mountain" x1="0" y1="0" x2="1" y2="1">
      <stop offset="0%" stop-color="#8fd7a3" />
      <stop offset="100%" stop-color="#2d7a3e" />
    </linearGradient>
  </defs>
  <rect width="800" height="600" fill="url(#sky)" />
  <circle cx="620" cy="160" r="80" fill="url(#sun)" opacity="0.95" />
  <path
    d="M-20 520C120 420 240 460 360 360C480 260 600 460 780 420V600H-20V520Z"
    fill="url(#mountain)"
  />
  <path
    d="M80 500C160 420 260 450 340 380C420 310 520 450 620 390C720 330 780 470 860 430V560H0V500Z"
    fill="#f3fbe7"
  />
  <circle cx="220" cy="380" r="28" fill="white" opacity="0.4" />
  <circle cx="270" cy="340" r="18" fill="white" opacity="0.3" />
  <circle cx="110" cy="420" r="20" fill="#f7b801" opacity="0.6" />
  <rect x="520" y="460" width="160" height="100" rx="16" fill="#fff" opacity="0.45" />
  <rect x="540" y="360" width="120" height="20" rx="8" fill="#ffdbac" />
  <rect x="560" y="320" width="80" height="16" rx="8" fill="#fff" opacity="0.8" />
  <path
    d="M160 340H240M160 360H240M160 380H240"
    stroke="#ffffff"
    stroke-width="4"
    stroke-linecap="round"
    opacity="0.8"
  />
  <path
    d="M400 420H480M420 400H460M410 380H470"
    stroke="#ffffff"
    stroke-width="4"
    stroke-linecap="round"
    opacity="0.7"
  />
  <path
    d="M380 220C430 200 470 230 520 210"
    stroke="#ffdbac"
    stroke-width="6"
    stroke-linecap="round"
    opacity="0.6"
  />
  <text x="80" y="540" font-family="Inter, sans-serif" font-size="24" fill="#1a1a1a">
    Cebu City · Culture Map
  </text>
</svg>




