<svg width="430" height="932" viewBox="0 0 430 932" fill="none" xmlns="http://www.w3.org/2000/svg">
<g clip-path="url(#clip0_2_64094)">
<rect width="430" height="932" fill="white"/>
<g clip-path="url(#clip1_2_64094)">
<rect width="430" height="933" fill="white"/>
<rect width="430" height="933" fill="#E5E5E5"/>
<rect width="430" height="933" fill="url(#paint0_linear_2_64094)"/>
<g clip-path="url(#clip2_2_64094)">
<path d="M97.9546 279.705C91.3276 279.705 85.9546 285.078 85.9546 291.705C85.9546 300.705 97.9546 311.705 97.9546 311.705C97.9546 311.705 109.955 300.705 109.955 291.705C109.955 285.078 104.582 279.705 97.9546 279.705Z" fill="#2D7A3E"/>
<path d="M93.9546 291.705C93.9546 289.495 95.7455 287.705 97.9546 287.705C100.164 287.705 101.955 289.495 101.955 291.705C101.955 293.914 100.164 295.705 97.9546 295.705C95.7455 295.705 93.9546 293.914 93.9546 291.705Z" fill="white"/>
</g>
<g clip-path="url(#clip3_2_64094)">
<path d="M291.375 419.557C284.748 419.557 279.375 424.93 279.375 431.557C279.375 440.557 291.375 451.557 291.375 451.557C291.375 451.557 303.375 440.557 303.375 431.557C303.375 424.93 298.002 419.557 291.375 419.557Z" fill="#2D7A3E"/>
<path d="M287.375 431.557C287.375 429.348 289.166 427.557 291.375 427.557C293.584 427.557 295.375 429.348 295.375 431.557C295.375 433.766 293.584 435.557 291.375 435.557C289.166 435.557 287.375 433.766 287.375 431.557Z" fill="white"/>
</g>
<g clip-path="url(#clip4_2_64094)">
<path d="M214.909 444.182C204.968 444.182 196.909 452.241 196.909 462.182C196.909 475.682 214.909 488.182 214.909 488.182C214.909 488.182 232.909 475.682 232.909 462.182C232.909 452.241 224.85 444.182 214.909 444.182Z" fill="#F7B801"/>
<path d="M208.909 462.182C208.909 458.868 211.595 456.182 214.909 456.182C218.223 456.182 220.909 458.868 220.909 462.182C220.909 465.496 218.223 468.182 214.909 468.182C211.595 468.182 208.909 465.496 208.909 462.182Z" fill="white"/>
<path d="M203.909 462.182C203.909 456.107 208.834 451.182 214.909 451.182C220.984 451.182 225.909 456.107 225.909 462.182C225.909 468.257 220.984 473.182 214.909 473.182C208.834 473.182 203.909 468.257 203.909 462.182Z" stroke="#F7B801" stroke-width="2"/>
</g>
<g clip-path="url(#clip5_2_64094)">
<path d="M162.432 559.409C155.805 559.409 150.432 564.782 150.432 571.409C150.432 580.409 162.432 591.409 162.432 591.409C162.432 591.409 174.432 580.409 174.432 571.409C174.432 564.782 169.059 559.409 162.432 559.409Z" fill="#4A9D5E"/>
<path d="M158.432 571.409C158.432 569.2 160.223 567.409 162.432 567.409C164.641 567.409 166.432 569.2 166.432 571.409C166.432 573.618 164.641 575.409 162.432 575.409C160.223 575.409 158.432 573.618 158.432 571.409Z" fill="white"/>
</g>
<g clip-path="url(#clip6_2_64094)">
<path d="M334.364 233.091C327.737 233.091 322.364 238.464 322.364 245.091C322.364 254.091 334.364 265.091 334.364 265.091C334.364 265.091 346.364 254.091 346.364 245.091C346.364 238.464 340.991 233.091 334.364 233.091Z" fill="#2D7A3E"/>
<path d="M330.364 245.091C330.364 242.882 332.155 241.091 334.364 241.091C336.573 241.091 338.364 242.882 338.364 245.091C338.364 247.3 336.573 249.091 334.364 249.091C332.155 249.091 330.364 247.3 330.364 245.091Z" fill="white"/>
</g>
<g filter="url(#filter0_dd_2_64094)">
<rect x="349.818" y="764.364" width="56" height="56" rx="28" fill="white" shape-rendering="crispEdges"/>
<path fill-rule="evenodd" clip-rule="evenodd" d="M367.818 792.364C367.818 792.749 368.13 793.062 368.516 793.062H370.408C370.744 796.62 373.561 799.437 377.119 799.773V801.665C377.119 802.05 377.432 802.363 377.817 802.363C378.203 802.363 378.515 802.05 378.515 801.665V799.773C382.073 799.437 384.891 796.62 385.227 793.062H387.118C387.504 793.062 387.816 792.749 387.816 792.364C387.816 791.978 387.504 791.666 387.118 791.666H385.227C384.891 788.107 382.073 785.29 378.515 784.954V783.063C378.515 782.677 378.203 782.365 377.817 782.365C377.432 782.365 377.119 782.677 377.119 783.063V784.954C373.561 785.29 370.744 788.107 370.408 791.666H368.516C368.131 791.667 367.819 791.979 367.818 792.364ZM374.33 792.364C374.33 791.118 374.994 789.966 376.073 789.343C377.153 788.72 378.482 788.72 379.561 789.343C380.64 789.966 381.305 791.118 381.305 792.364C381.305 794.29 379.743 795.851 377.817 795.851C375.891 795.851 374.33 794.29 374.33 792.364ZM374.33 792.364C374.33 791.118 374.994 789.966 376.073 789.343C377.153 788.72 378.482 788.72 379.561 789.343C380.64 789.966 381.305 791.118 381.305 792.364C381.305 794.29 379.743 795.851 377.817 795.851C375.891 795.851 374.33 794.29 374.33 792.364Z" fill="#2D7A3E"/>
<path d="M375.725 792.364C375.725 791.208 376.662 790.271 377.818 790.271C378.974 790.271 379.911 791.208 379.911 792.364C379.911 793.52 378.974 794.457 377.818 794.457C376.662 794.457 375.725 793.52 375.725 792.364Z" fill="#2D7A3E"/>
</g>
<g filter="url(#filter1_dd_2_64094)">
<rect x="16" y="16" width="48" height="48" rx="12" fill="white" shape-rendering="crispEdges"/>
<path fill-rule="evenodd" clip-rule="evenodd" d="M31.464 48.536C32.93 50 35.286 50 40 50C44.714 50 47.071 50 48.535 48.535C50 47.072 50 44.714 50 40C50 35.286 50 32.929 48.535 31.464C47.072 30 44.714 30 40 30C35.286 30 32.929 30 31.464 31.464C30 32.93 30 35.286 30 40C30 44.714 30 47.071 31.464 48.535M46.75 44C46.75 44.4142 46.4142 44.75 46 44.75H34C33.5858 44.75 33.25 44.4142 33.25 44C33.25 43.5858 33.5858 43.25 34 43.25H46C46.4142 43.25 46.75 43.5858 46.75 44ZM46 40.75C46.4142 40.75 46.75 40.4142 46.75 40C46.75 39.5858 46.4142 39.25 46 39.25H34C33.5858 39.25 33.25 39.5858 33.25 40C33.25 40.4142 33.5858 40.75 34 40.75H46ZM46.75 36C46.75 36.4142 46.4142 36.75 46 36.75H34C33.5858 36.75 33.25 36.4142 33.25 36C33.25 35.5858 33.5858 35.25 34 35.25H46C46.4142 35.25 46.75 35.5858 46.75 36ZM46.75 36C46.75 36.4142 46.4142 36.75 46 36.75H34C33.5858 36.75 33.25 36.4142 33.25 36C33.25 35.5858 33.5858 35.25 34 35.25H46C46.4142 35.25 46.75 35.5858 46.75 36Z" fill="#1A1A1A"/>
</g>
<g filter="url(#filter2_dd_2_64094)">
<rect x="76" y="16" width="278" height="48" rx="12" fill="white" shape-rendering="crispEdges"/>
<path d="M97.6666 39.5833C97.6666 35.2111 101.211 31.6667 105.583 31.6667C109.956 31.6667 113.5 35.2111 113.5 39.5833C113.5 43.9556 109.956 47.5 105.583 47.5C101.211 47.5 97.6666 43.9556 97.6666 39.5833Z" stroke="#4A4A4A" stroke-width="1.25"/>
<path d="M111.417 45.4167L114.333 48.3333" stroke="#4A4A4A" stroke-width="1.25" stroke-linecap="round"/>
<path d="M133.548 45.9673C132.743 45.9673 132.019 45.8326 131.376 45.5633C130.733 45.2939 130.203 44.9113 129.784 44.4153C129.365 43.9193 129.092 43.3299 128.964 42.6473L130.164 42.4473C130.356 43.1939 130.761 43.7793 131.38 44.2033C131.999 44.6273 132.737 44.8393 133.596 44.8393C134.161 44.8393 134.668 44.7499 135.116 44.5713C135.564 44.3926 135.916 44.1379 136.172 43.8073C136.428 43.4766 136.556 43.0846 136.556 42.6313C136.556 42.3326 136.503 42.0779 136.396 41.8673C136.289 41.6566 136.148 41.4819 135.972 41.3433C135.796 41.2046 135.604 41.0886 135.396 40.9953C135.188 40.9019 134.985 40.8259 134.788 40.7673L131.868 39.8953C131.516 39.7939 131.191 39.6646 130.892 39.5073C130.593 39.3499 130.333 39.1606 130.112 38.9393C129.891 38.7179 129.719 38.4579 129.596 38.1593C129.473 37.8606 129.412 37.5193 129.412 37.1353C129.412 36.4846 129.583 35.9219 129.924 35.4473C130.265 34.9726 130.732 34.6073 131.324 34.3513C131.916 34.0953 132.591 33.9699 133.348 33.9753C134.116 33.9753 134.803 34.1113 135.408 34.3833C136.013 34.6553 136.513 35.0433 136.908 35.5473C137.303 36.0513 137.564 36.6473 137.692 37.3353L136.46 37.5593C136.38 37.0579 136.196 36.6233 135.908 36.2553C135.62 35.8873 135.253 35.6033 134.808 35.4033C134.363 35.2033 133.873 35.1006 133.34 35.0953C132.823 35.0953 132.363 35.1819 131.96 35.3553C131.557 35.5286 131.239 35.7646 131.004 36.0633C130.769 36.3619 130.652 36.7033 130.652 37.0873C130.652 37.4766 130.76 37.7886 130.976 38.0233C131.192 38.2579 131.459 38.4419 131.776 38.5753C132.093 38.7086 132.401 38.8179 132.7 38.9033L134.956 39.5673C135.191 39.6313 135.467 39.7233 135.784 39.8433C136.101 39.9633 136.411 40.1339 136.712 40.3553C137.013 40.5766 137.263 40.8659 137.46 41.2233C137.657 41.5806 137.756 42.0339 137.756 42.5833C137.756 43.1166 137.651 43.5939 137.44 44.0153C137.229 44.4366 136.933 44.7913 136.552 45.0793C136.171 45.3673 135.725 45.5873 135.216 45.7393C134.707 45.8913 134.151 45.9673 133.548 45.9673ZM143.068 45.9673C142.225 45.9673 141.496 45.7806 140.88 45.4073C140.264 45.0339 139.785 44.5086 139.444 43.8313C139.103 43.1539 138.932 42.3593 138.932 41.4473C138.932 40.5033 139.1 39.6873 139.436 38.9993C139.772 38.3113 140.245 37.7806 140.856 37.4073C141.467 37.0339 142.188 36.8473 143.02 36.8473C143.873 36.8473 144.601 37.0433 145.204 37.4353C145.807 37.8273 146.263 38.3886 146.572 39.1193C146.881 39.8499 147.023 40.7219 146.996 41.7353H145.796V41.3193C145.775 40.1993 145.533 39.3539 145.072 38.7833C144.611 38.2126 143.937 37.9273 143.052 37.9273C142.124 37.9273 141.413 38.2286 140.92 38.8313C140.427 39.4339 140.18 40.2926 140.18 41.4073C140.18 42.4953 140.427 43.3393 140.92 43.9393C141.413 44.5393 142.113 44.8393 143.02 44.8393C143.639 44.8393 144.179 44.6966 144.64 44.4113C145.101 44.1259 145.465 43.7139 145.732 43.1753L146.828 43.5993C146.487 44.3513 145.984 44.9339 145.32 45.3473C144.656 45.7606 143.905 45.9673 143.068 45.9673ZM146.364 41.7353H139.764V40.7513H146.364V41.7353ZM151.076 45.9673C150.425 45.9673 149.88 45.8499 149.44 45.6153C149 45.3806 148.671 45.0686 148.452 44.6793C148.233 44.2899 148.124 43.8659 148.124 43.4073C148.124 42.9379 148.219 42.5366 148.408 42.2033C148.597 41.8699 148.856 41.5966 149.184 41.3833C149.512 41.1699 149.892 41.0073 150.324 40.8953C150.761 40.7886 151.245 40.6939 151.776 40.6113C152.307 40.5286 152.827 40.4566 153.336 40.3953C153.845 40.3339 154.292 40.2739 154.676 40.2153L154.26 40.4713C154.276 39.6179 154.111 38.9859 153.764 38.5753C153.417 38.1646 152.815 37.9593 151.956 37.9593C151.364 37.9593 150.864 38.0926 150.456 38.3593C150.048 38.6259 149.761 39.0473 149.596 39.6233L148.452 39.2873C148.649 38.5139 149.047 37.9139 149.644 37.4873C150.241 37.0606 151.017 36.8473 151.972 36.8473C152.761 36.8473 153.432 36.9953 153.984 37.2913C154.536 37.5873 154.927 38.0153 155.156 38.5753C155.263 38.8259 155.332 39.1059 155.364 39.4153C155.396 39.7246 155.412 40.0393 155.412 40.3593V45.7273H154.364V43.5593L154.668 43.6873C154.375 44.4286 153.919 44.9939 153.3 45.3833C152.681 45.7726 151.94 45.9673 151.076 45.9673ZM151.212 44.9513C151.761 44.9513 152.241 44.8526 152.652 44.6553C153.063 44.4579 153.393 44.1873 153.644 43.8433C153.895 43.4993 154.057 43.1113 154.132 42.6793C154.196 42.4019 154.231 42.0966 154.236 41.7633C154.241 41.4299 154.244 41.1806 154.244 41.0153L154.692 41.2473C154.292 41.3006 153.859 41.3539 153.392 41.4073C152.925 41.4606 152.467 41.5219 152.016 41.5913C151.565 41.6606 151.159 41.7433 150.796 41.8393C150.551 41.9086 150.313 42.0059 150.084 42.1313C149.855 42.2566 149.667 42.4233 149.52 42.6313C149.373 42.8393 149.3 43.0979 149.3 43.4073C149.3 43.6579 149.363 43.9006 149.488 44.1353C149.613 44.3699 149.816 44.5646 150.096 44.7193C150.376 44.8739 150.748 44.9513 151.212 44.9513ZM158.668 45.7273H157.492V37.0873H158.548V39.1673L158.34 38.8953C158.436 38.6393 158.561 38.4033 158.716 38.1873C158.871 37.9713 159.039 37.7939 159.22 37.6553C159.444 37.4579 159.705 37.3073 160.004 37.2033C160.303 37.0993 160.604 37.0379 160.908 37.0193C161.212 37.0006 161.489 37.0233 161.74 37.0873V38.1913C161.425 38.1113 161.081 38.0926 160.708 38.1353C160.335 38.1779 159.991 38.3273 159.676 38.5833C159.388 38.8073 159.172 39.0753 159.028 39.3873C158.884 39.6993 158.788 40.0299 158.74 40.3793C158.692 40.7286 158.668 41.0739 158.668 41.4153V45.7273ZM166.684 45.9673C165.815 45.9673 165.079 45.7726 164.476 45.3833C163.873 44.9939 163.416 44.4566 163.104 43.7713C162.792 43.0859 162.631 42.2979 162.62 41.4073C162.631 40.5006 162.796 39.7046 163.116 39.0193C163.436 38.3339 163.897 37.8006 164.5 37.4193C165.103 37.0379 165.833 36.8473 166.692 36.8473C167.567 36.8473 168.328 37.0606 168.976 37.4873C169.624 37.9139 170.068 38.4979 170.308 39.2393L169.156 39.6073C168.953 39.0899 168.632 38.6886 168.192 38.4033C167.752 38.1179 167.249 37.9753 166.684 37.9753C166.049 37.9753 165.524 38.1206 165.108 38.4113C164.692 38.7019 164.383 39.1059 164.18 39.6233C163.977 40.1406 163.873 40.7353 163.868 41.4073C163.879 42.4419 164.119 43.2726 164.588 43.8993C165.057 44.5259 165.756 44.8393 166.684 44.8393C167.271 44.8393 167.771 44.7046 168.184 44.4353C168.597 44.1659 168.911 43.7726 169.124 43.2553L170.308 43.6073C169.988 44.3753 169.519 44.9606 168.9 45.3633C168.281 45.7659 167.543 45.9673 166.684 45.9673ZM179.38 45.7273H178.196V41.3193C178.196 40.8393 178.151 40.3979 178.06 39.9953C177.969 39.5926 177.824 39.2406 177.624 38.9393C177.424 38.6379 177.165 38.4046 176.848 38.2393C176.531 38.0739 176.145 37.9913 175.692 37.9913C175.276 37.9913 174.909 38.0633 174.592 38.2073C174.275 38.3513 174.008 38.5579 173.792 38.8273C173.576 39.0966 173.412 39.4233 173.3 39.8073C173.188 40.1913 173.132 40.6286 173.132 41.1193L172.3 40.9353C172.3 40.0499 172.455 39.3059 172.764 38.7033C173.073 38.1006 173.5 37.6446 174.044 37.3353C174.588 37.0259 175.212 36.8713 175.916 36.8713C176.433 36.8713 176.885 36.9513 177.272 37.1113C177.659 37.2713 177.987 37.4873 178.256 37.7593C178.525 38.0313 178.743 38.3419 178.908 38.6913C179.073 39.0406 179.193 39.4113 179.268 39.8033C179.343 40.1953 179.38 40.5859 179.38 40.9753V45.7273ZM173.132 45.7273H171.948V34.2073H173.012V40.7113H173.132V45.7273ZM189.276 45.9673C188.465 45.9673 187.735 45.8259 187.084 45.5433C186.433 45.2606 185.88 44.8579 185.424 44.3353C184.968 43.8126 184.62 43.1819 184.38 42.4433C184.14 41.7046 184.02 40.8793 184.02 39.9673C184.02 38.7619 184.229 37.7099 184.648 36.8113C185.067 35.9126 185.668 35.2153 186.452 34.7193C187.236 34.2233 188.177 33.9753 189.276 33.9753C190.503 33.9753 191.501 34.2619 192.272 34.8353C193.043 35.4086 193.58 36.1779 193.884 37.1433L192.7 37.4313C192.449 36.7273 192.037 36.1646 191.464 35.7433C190.891 35.3219 190.177 35.1113 189.324 35.1113C188.423 35.1059 187.673 35.3073 187.076 35.7153C186.479 36.1233 186.029 36.6939 185.728 37.4273C185.427 38.1606 185.273 39.0073 185.268 39.9673C185.263 40.9273 185.411 41.7713 185.712 42.4993C186.013 43.2273 186.465 43.7979 187.068 44.2113C187.671 44.6246 188.423 44.8339 189.324 44.8393C190.151 44.8393 190.833 44.6793 191.372 44.3593C191.911 44.0393 192.32 43.5806 192.6 42.9833C192.88 42.3859 193.039 41.6793 193.076 40.8633H190.42V39.8553H194.308C194.324 39.9779 194.333 40.1073 194.336 40.2433C194.339 40.3793 194.34 40.4766 194.34 40.5353C194.34 41.5753 194.153 42.5046 193.78 43.3233C193.407 44.1419 192.845 44.7873 192.096 45.2593C191.347 45.7313 190.407 45.9673 189.276 45.9673ZM199.596 45.9673C198.753 45.9673 198.024 45.7806 197.408 45.4073C196.792 45.0339 196.313 44.5086 195.972 43.8313C195.631 43.1539 195.46 42.3593 195.46 41.4473C195.46 40.5033 195.628 39.6873 195.964 38.9993C196.3 38.3113 196.773 37.7806 197.384 37.4073C197.995 37.0339 198.716 36.8473 199.548 36.8473C200.401 36.8473 201.129 37.0433 201.732 37.4353C202.335 37.8273 202.791 38.3886 203.1 39.1193C203.409 39.8499 203.551 40.7219 203.524 41.7353H202.324V41.3193C202.303 40.1993 202.061 39.3539 201.6 38.7833C201.139 38.2126 200.465 37.9273 199.58 37.9273C198.652 37.9273 197.941 38.2286 197.448 38.8313C196.955 39.4339 196.708 40.2926 196.708 41.4073C196.708 42.4953 196.955 43.3393 197.448 43.9393C197.941 44.5393 198.641 44.8393 199.548 44.8393C200.167 44.8393 200.707 44.6966 201.168 44.4113C201.629 44.1259 201.993 43.7139 202.26 43.1753L203.356 43.5993C203.015 44.3513 202.512 44.9339 201.848 45.3473C201.184 45.7606 200.433 45.9673 199.596 45.9673ZM202.892 41.7353H196.292V40.7513H202.892V41.7353ZM216.532 45.7273H215.356L215.364 40.0553C215.364 39.3886 215.179 38.8646 214.808 38.4833C214.437 38.1019 213.967 37.9113 213.396 37.9113C213.071 37.9113 212.753 37.9859 212.444 38.1353C212.135 38.2846 211.88 38.5246 211.68 38.8553C211.48 39.1859 211.38 39.6179 211.38 40.1513L210.684 39.9513C210.668 39.3326 210.789 38.7913 211.048 38.3273C211.307 37.8633 211.664 37.5019 212.12 37.2433C212.576 36.9846 213.092 36.8553 213.668 36.8553C214.537 36.8553 215.233 37.1233 215.756 37.6593C216.279 38.1953 216.54 38.9193 216.54 39.8313L216.532 45.7273ZM206.228 45.7273H205.044V37.0873H206.1V39.2153H206.228V45.7273ZM211.372 45.7273H210.212L210.22 40.1353C210.22 39.4473 210.037 38.9046 209.672 38.5073C209.307 38.1099 208.825 37.9113 208.228 37.9113C207.631 37.9113 207.148 38.1153 206.78 38.5233C206.412 38.9313 206.228 39.4739 206.228 40.1513L205.524 39.7673C205.524 39.2126 205.655 38.7153 205.916 38.2753C206.177 37.8353 206.535 37.4886 206.988 37.2353C207.441 36.9819 207.956 36.8553 208.532 36.8553C209.081 36.8553 209.571 36.9726 210 37.2073C210.429 37.4419 210.767 37.7833 211.012 38.2313C211.257 38.6793 211.38 39.2233 211.38 39.8633L211.372 45.7273ZM221.844 45.9593C220.831 45.9593 219.997 45.7406 219.344 45.3033C218.691 44.8659 218.289 44.2579 218.14 43.4793L219.34 43.2793C219.468 43.7699 219.76 44.1606 220.216 44.4513C220.672 44.7419 221.236 44.8873 221.908 44.8873C222.564 44.8873 223.081 44.7499 223.46 44.4753C223.839 44.2006 224.028 43.8259 224.028 43.3513C224.028 43.0846 223.968 42.8673 223.848 42.6993C223.728 42.5313 223.484 42.3753 223.116 42.2313C222.748 42.0873 222.199 41.9166 221.468 41.7193C220.684 41.5059 220.071 41.2926 219.628 41.0793C219.185 40.8659 218.871 40.6193 218.684 40.3393C218.497 40.0593 218.404 39.7166 218.404 39.3113C218.404 38.8206 218.543 38.3899 218.82 38.0193C219.097 37.6486 219.481 37.3606 219.972 37.1553C220.463 36.9499 221.033 36.8473 221.684 36.8473C222.335 36.8473 222.917 36.9526 223.432 37.1633C223.947 37.3739 224.361 37.6686 224.676 38.0473C224.991 38.4259 225.177 38.8659 225.236 39.3673L224.036 39.5833C223.956 39.0766 223.704 38.6753 223.28 38.3793C222.856 38.0833 222.319 37.9299 221.668 37.9193C221.055 37.9033 220.556 38.0193 220.172 38.2673C219.788 38.5153 219.596 38.8446 219.596 39.2553C219.596 39.4846 219.665 39.6806 219.804 39.8433C219.943 40.0059 220.195 40.1593 220.56 40.3033C220.925 40.4473 221.447 40.6046 222.124 40.7753C222.919 40.9779 223.543 41.1913 223.996 41.4153C224.449 41.6393 224.772 41.9033 224.964 42.2073C225.156 42.5113 225.252 42.8873 225.252 43.3353C225.252 44.1513 224.949 44.7926 224.344 45.2593C223.739 45.7259 222.905 45.9593 221.844 45.9593ZM232.692 45.9673C232.041 45.9673 231.496 45.8499 231.056 45.6153C230.616 45.3806 230.287 45.0686 230.068 44.6793C229.849 44.2899 229.74 43.8659 229.74 43.4073C229.74 42.9379 229.835 42.5366 230.024 42.2033C230.213 41.8699 230.472 41.5966 230.8 41.3833C231.128 41.1699 231.508 41.0073 231.94 40.8953C232.377 40.7886 232.861 40.6939 233.392 40.6113C233.923 40.5286 234.443 40.4566 234.952 40.3953C235.461 40.3339 235.908 40.2739 236.292 40.2153L235.876 40.4713C235.892 39.6179 235.727 38.9859 235.38 38.5753C235.033 38.1646 234.431 37.9593 233.572 37.9593C232.98 37.9593 232.48 38.0926 232.072 38.3593C231.664 38.6259 231.377 39.0473 231.212 39.6233L230.068 39.2873C230.265 38.5139 230.663 37.9139 231.26 37.4873C231.857 37.0606 232.633 36.8473 233.588 36.8473C234.377 36.8473 235.048 36.9953 235.6 37.2913C236.152 37.5873 236.543 38.0153 236.772 38.5753C236.879 38.8259 236.948 39.1059 236.98 39.4153C237.012 39.7246 237.028 40.0393 237.028 40.3593V45.7273H235.98V43.5593L236.284 43.6873C235.991 44.4286 235.535 44.9939 234.916 45.3833C234.297 45.7726 233.556 45.9673 232.692 45.9673ZM232.828 44.9513C233.377 44.9513 233.857 44.8526 234.268 44.6553C234.679 44.4579 235.009 44.1873 235.26 43.8433C235.511 43.4993 235.673 43.1113 235.748 42.6793C235.812 42.4019 235.847 42.0966 235.852 41.7633C235.857 41.4299 235.86 41.1806 235.86 41.0153L236.308 41.2473C235.908 41.3006 235.475 41.3539 235.008 41.4073C234.541 41.4606 234.083 41.5219 233.632 41.5913C233.181 41.6606 232.775 41.7433 232.412 41.8393C232.167 41.9086 231.929 42.0059 231.7 42.1313C231.471 42.2566 231.283 42.4233 231.136 42.6313C230.989 42.8393 230.916 43.0979 230.916 43.4073C230.916 43.6579 230.979 43.9006 231.104 44.1353C231.229 44.3699 231.432 44.5646 231.712 44.7193C231.992 44.8739 232.364 44.9513 232.828 44.9513ZM246.532 45.7273H245.348V41.3193C245.348 40.8393 245.303 40.3979 245.212 39.9953C245.121 39.5926 244.976 39.2406 244.776 38.9393C244.576 38.6379 244.317 38.4046 244 38.2393C243.683 38.0739 243.297 37.9913 242.844 37.9913C242.428 37.9913 242.061 38.0633 241.744 38.2073C241.427 38.3513 241.16 38.5579 240.944 38.8273C240.728 39.0966 240.564 39.4233 240.452 39.8073C240.34 40.1913 240.284 40.6286 240.284 41.1193L239.452 40.9353C239.452 40.0499 239.607 39.3059 239.916 38.7033C240.225 38.1006 240.652 37.6446 241.196 37.3353C241.74 37.0259 242.364 36.8713 243.068 36.8713C243.585 36.8713 244.037 36.9513 244.424 37.1113C244.811 37.2713 245.139 37.4873 245.408 37.7593C245.677 38.0313 245.895 38.3419 246.06 38.6913C246.225 39.0406 246.345 39.4113 246.42 39.8033C246.495 40.1953 246.532 40.5859 246.532 40.9753V45.7273ZM240.284 45.7273H239.1V37.0873H240.164V39.2153H240.284V45.7273ZM251.908 45.9673C251.103 45.9673 250.415 45.7659 249.844 45.3633C249.273 44.9606 248.836 44.4153 248.532 43.7273C248.228 43.0393 248.076 42.2633 248.076 41.3993C248.076 40.5406 248.227 39.7673 248.528 39.0793C248.829 38.3913 249.263 37.8473 249.828 37.4473C250.393 37.0473 251.071 36.8473 251.86 36.8473C252.671 36.8473 253.353 37.0446 253.908 37.4393C254.463 37.8339 254.883 38.3739 255.168 39.0593C255.453 39.7446 255.596 40.5246 255.596 41.3993C255.596 42.2579 255.455 43.0326 255.172 43.7233C254.889 44.4139 254.473 44.9606 253.924 45.3633C253.375 45.7659 252.703 45.9673 251.908 45.9673ZM252.028 44.8713C252.641 44.8713 253.148 44.7219 253.548 44.4233C253.948 44.1246 254.247 43.7126 254.444 43.1873C254.641 42.6619 254.74 42.0659 254.74 41.3993C254.74 40.7219 254.641 40.1233 254.444 39.6033C254.247 39.0833 253.949 38.6766 253.552 38.3833C253.155 38.0899 252.655 37.9433 252.052 37.9433C251.433 37.9433 250.921 38.0953 250.516 38.3993C250.111 38.7033 249.811 39.1166 249.616 39.6393C249.421 40.1619 249.324 40.7486 249.324 41.3993C249.324 42.0553 249.424 42.6459 249.624 43.1713C249.824 43.6966 250.124 44.1113 250.524 44.4153C250.924 44.7193 251.425 44.8713 252.028 44.8713ZM255.796 45.7273H254.74V39.2233H254.612V34.2073H255.796V45.7273ZM262.412 45.7273H261.236V34.2073H262.412V39.6473L267.668 34.2073H269.172L263.804 39.7673L269.612 45.7273H268.076L262.412 39.9673V45.7273ZM271.908 45.7273H270.732V37.0873H271.788V39.1673L271.58 38.8953C271.676 38.6393 271.801 38.4033 271.956 38.1873C272.111 37.9713 272.279 37.7939 272.46 37.6553C272.684 37.4579 272.945 37.3073 273.244 37.2033C273.543 37.0993 273.844 37.0379 274.148 37.0193C274.452 37.0006 274.729 37.0233 274.98 37.0873V38.1913C274.665 38.1113 274.321 38.0926 273.948 38.1353C273.575 38.1779 273.231 38.3273 272.916 38.5833C272.628 38.8073 272.412 39.0753 272.268 39.3873C272.124 39.6993 272.028 40.0299 271.98 40.3793C271.932 40.7286 271.908 41.0739 271.908 41.4153V45.7273ZM278.652 45.9673C278.001 45.9673 277.456 45.8499 277.016 45.6153C276.576 45.3806 276.247 45.0686 276.028 44.6793C275.809 44.2899 275.7 43.8659 275.7 43.4073C275.7 42.9379 275.795 42.5366 275.984 42.2033C276.173 41.8699 276.432 41.5966 276.76 41.3833C277.088 41.1699 277.468 41.0073 277.9 40.8953C278.337 40.7886 278.821 40.6939 279.352 40.6113C279.883 40.5286 280.403 40.4566 280.912 40.3953C281.421 40.3339 281.868 40.2739 282.252 40.2153L281.836 40.4713C281.852 39.6179 281.687 38.9859 281.34 38.5753C280.993 38.1646 280.391 37.9593 279.532 37.9593C278.94 37.9593 278.44 38.0926 278.032 38.3593C277.624 38.6259 277.337 39.0473 277.172 39.6233L276.028 39.2873C276.225 38.5139 276.623 37.9139 277.22 37.4873C277.817 37.0606 278.593 36.8473 279.548 36.8473C280.337 36.8473 281.008 36.9953 281.56 37.2913C282.112 37.5873 282.503 38.0153 282.732 38.5753C282.839 38.8259 282.908 39.1059 282.94 39.4153C282.972 39.7246 282.988 40.0393 282.988 40.3593V45.7273H281.94V43.5593L282.244 43.6873C281.951 44.4286 281.495 44.9939 280.876 45.3833C280.257 45.7726 279.516 45.9673 278.652 45.9673ZM278.788 44.9513C279.337 44.9513 279.817 44.8526 280.228 44.6553C280.639 44.4579 280.969 44.1873 281.22 43.8433C281.471 43.4993 281.633 43.1113 281.708 42.6793C281.772 42.4019 281.807 42.0966 281.812 41.7633C281.817 41.4299 281.82 41.1806 281.82 41.0153L282.268 41.2473C281.868 41.3006 281.435 41.3539 280.968 41.4073C280.501 41.4606 280.043 41.5219 279.592 41.5913C279.141 41.6606 278.735 41.7433 278.372 41.8393C278.127 41.9086 277.889 42.0059 277.66 42.1313C277.431 42.2566 277.243 42.4233 277.096 42.6313C276.949 42.8393 276.876 43.0979 276.876 43.4073C276.876 43.6579 276.939 43.9006 277.064 44.1353C277.189 44.3699 277.392 44.5646 277.672 44.7193C277.952 44.8739 278.324 44.9513 278.788 44.9513ZM287.612 45.7273H286.588L283.948 37.0793L285.124 37.0873L287.172 43.7993L289.228 37.0873H290.3L292.356 43.7993L294.42 37.0873H295.588L292.948 45.7273H291.924L289.764 38.8473L287.612 45.7273ZM298.364 45.7273H297.188V33.9673H298.364V45.7273ZM303.988 45.9593C302.975 45.9593 302.141 45.7406 301.488 45.3033C300.835 44.8659 300.433 44.2579 300.284 43.4793L301.484 43.2793C301.612 43.7699 301.904 44.1606 302.36 44.4513C302.816 44.7419 303.38 44.8873 304.052 44.8873C304.708 44.8873 305.225 44.7499 305.604 44.4753C305.983 44.2006 306.172 43.8259 306.172 43.3513C306.172 43.0846 306.112 42.8673 305.992 42.6993C305.872 42.5313 305.628 42.3753 305.26 42.2313C304.892 42.0873 304.343 41.9166 303.612 41.7193C302.828 41.5059 302.215 41.2926 301.772 41.0793C301.329 40.8659 301.015 40.6193 300.828 40.3393C300.641 40.0593 300.548 39.7166 300.548 39.3113C300.548 38.8206 300.687 38.3899 300.964 38.0193C301.241 37.6486 301.625 37.3606 302.116 37.1553C302.607 36.9499 303.177 36.8473 303.828 36.8473C304.479 36.8473 305.061 36.9526 305.576 37.1633C306.091 37.3739 306.505 37.6686 306.82 38.0473C307.135 38.4259 307.321 38.8659 307.38 39.3673L306.18 39.5833C306.1 39.0766 305.848 38.6753 305.424 38.3793C305 38.0833 304.463 37.9299 303.812 37.9193C303.199 37.9033 302.7 38.0193 302.316 38.2673C301.932 38.5153 301.74 38.8446 301.74 39.2553C301.74 39.4846 301.809 39.6806 301.948 39.8433C302.087 40.0059 302.339 40.1593 302.704 40.3033C303.069 40.4473 303.591 40.6046 304.268 40.7753C305.063 40.9779 305.687 41.1913 306.14 41.4153C306.593 41.6393 306.916 41.9033 307.108 42.2073C307.3 42.5113 307.396 42.8873 307.396 43.3353C307.396 44.1513 307.093 44.7926 306.488 45.2593C305.883 45.7259 305.049 45.9593 303.988 45.9593ZM310.756 45.7273H309.388V44.3593H310.756V45.7273ZM314.492 45.7273H313.124V44.3593H314.492V45.7273ZM318.228 45.7273H316.86V44.3593H318.228V45.7273Z" fill="#4A4A4A"/>
</g>
<g filter="url(#filter3_dd_2_64094)">
<rect x="365.818" y="16" width="48" height="48" rx="12" fill="white" shape-rendering="crispEdges"/>
<path d="M395.652 32.5H383.985C382.807 32.5 382.217 32.5 381.852 32.8433C381.486 33.1867 381.485 33.74 381.485 34.8458V35.4208C381.485 36.285 381.485 36.7175 381.702 37.0758C381.918 37.4342 382.312 37.6575 383.103 38.1025L385.531 39.4692C386.061 39.7675 386.327 39.9167 386.517 40.0817C386.912 40.4242 387.155 40.8275 387.265 41.3233C387.318 41.56 387.318 41.8383 387.318 42.3941V44.6191C387.318 45.3766 387.318 45.7558 387.528 46.0508C387.738 46.3466 388.112 46.4925 388.857 46.7841C390.422 47.3958 391.205 47.7016 391.762 47.3533C392.318 47.005 392.318 46.21 392.318 44.6183V42.3933C392.318 41.8383 392.318 41.56 392.372 41.3225C392.476 40.8368 392.74 40.3999 393.121 40.0808C393.31 39.9167 393.576 39.7675 394.106 39.4683L396.533 38.1017C397.323 37.6575 397.719 37.435 397.935 37.0767C398.152 36.7183 398.152 36.285 398.152 35.42V34.845C398.152 33.74 398.152 33.1867 397.785 32.8433C397.42 32.5 396.831 32.5 395.652 32.5Z" fill="#1A1A1A"/>
<rect x="397.818" y="12" width="20" height="20" rx="10" fill="#2D7A3E"/>
<path d="M406.81 25.635C406.453 25.635 406.118 25.5675 405.805 25.4325C405.491 25.2975 405.22 25.105 404.992 24.855C404.764 24.605 404.598 24.31 404.495 23.97L405.505 23.69C405.601 24 405.77 24.2375 406.01 24.4025C406.25 24.5675 406.516 24.6483 406.81 24.645C407.073 24.6417 407.305 24.58 407.505 24.46C407.705 24.34 407.861 24.1775 407.975 23.9725C408.088 23.7675 408.145 23.5317 408.145 23.265C408.145 22.865 408.02 22.535 407.772 22.275C407.524 22.015 407.2 21.885 406.8 21.885C406.686 21.885 406.57 21.9017 406.452 21.935C406.334 21.9683 406.223 22.0117 406.12 22.065L405.63 21.24L408.17 18.995L408.28 19.295H404.78V18.3H409.11V19.295L407 21.325L406.99 20.985C407.443 20.985 407.836 21.0858 408.17 21.2875C408.503 21.4892 408.76 21.7625 408.942 22.1075C409.124 22.4525 409.215 22.8383 409.215 23.265C409.215 23.725 409.107 24.1333 408.892 24.49C408.677 24.8467 408.389 25.1267 408.027 25.33C407.665 25.5333 407.26 25.635 406.81 25.635Z" fill="white"/>
</g>
<g filter="url(#filter4_dd_2_64094)">
<rect x="16" y="76" width="94" height="36" rx="18" fill="white" shape-rendering="crispEdges"/>
<path d="M36.266 98.21C35.5753 98.21 34.9453 98.0887 34.376 97.846C33.8067 97.6033 33.3167 97.2545 32.906 96.7995C32.4953 96.3445 32.1792 95.7938 31.9575 95.1475C31.7358 94.5012 31.625 93.772 31.625 92.96C31.625 91.8867 31.8163 90.958 32.199 90.174C32.5817 89.39 33.1207 88.7845 33.816 88.3575C34.5113 87.9305 35.328 87.717 36.266 87.717C37.3953 87.717 38.3053 87.9795 38.996 88.5045C39.6867 89.0295 40.1627 89.747 40.424 90.657L39.164 90.916C38.954 90.3047 38.6087 89.817 38.128 89.453C37.6473 89.089 37.0477 88.907 36.329 88.907C35.5777 88.9023 34.9535 89.0692 34.4565 89.4075C33.9595 89.7458 33.585 90.2207 33.333 90.832C33.081 91.4433 32.9527 92.1527 32.948 92.96C32.9433 93.7627 33.067 94.4673 33.319 95.074C33.571 95.6807 33.9478 96.1555 34.4495 96.4985C34.9512 96.8415 35.5777 97.0153 36.329 97.02C36.9777 97.0247 37.5237 96.901 37.967 96.649C38.4103 96.397 38.7533 96.033 38.996 95.557C39.2387 95.081 39.3857 94.5093 39.437 93.842H37.295V92.813H40.753C40.767 92.9063 40.7752 93.0172 40.7775 93.1455C40.7798 93.2738 40.781 93.3613 40.781 93.408C40.781 94.3273 40.6095 95.1498 40.2665 95.8755C39.9235 96.6012 39.4172 97.1717 38.7475 97.587C38.0778 98.0023 37.2507 98.21 36.266 98.21ZM45.457 98.21C44.715 98.21 44.0675 98.0455 43.5145 97.7165C42.9615 97.3875 42.531 96.9278 42.223 96.3375C41.915 95.7472 41.761 95.0577 41.761 94.269C41.761 93.443 41.9127 92.7278 42.216 92.1235C42.5193 91.5192 42.9428 91.0525 43.4865 90.7235C44.0302 90.3945 44.6683 90.23 45.401 90.23C46.1617 90.23 46.8092 90.405 47.3435 90.755C47.8778 91.105 48.2792 91.6043 48.5475 92.253C48.8158 92.9017 48.9313 93.674 48.894 94.57H47.634V94.122C47.62 93.1933 47.431 92.4992 47.067 92.0395C46.703 91.5798 46.1617 91.35 45.443 91.35C44.673 91.35 44.0873 91.5973 43.686 92.092C43.2847 92.5867 43.084 93.296 43.084 94.22C43.084 95.1113 43.2847 95.802 43.686 96.292C44.0873 96.782 44.659 97.027 45.401 97.027C45.9003 97.027 46.3343 96.9127 46.703 96.684C47.0717 96.4553 47.361 96.1263 47.571 95.697L48.768 96.11C48.474 96.7773 48.0318 97.2942 47.4415 97.6605C46.8512 98.0268 46.1897 98.21 45.457 98.21ZM48.25 94.57H42.664V93.569H48.25V94.57ZM60.521 98H59.275L59.282 93.163C59.282 92.5983 59.1315 92.1562 58.8305 91.8365C58.5295 91.5168 58.1387 91.357 57.658 91.357C57.378 91.357 57.112 91.4212 56.86 91.5495C56.608 91.6778 56.4027 91.8785 56.244 92.1515C56.0853 92.4245 56.006 92.7733 56.006 93.198L55.348 92.932C55.3387 92.3953 55.4495 91.9252 55.6805 91.5215C55.9115 91.1178 56.2277 90.804 56.629 90.58C57.0303 90.356 57.483 90.244 57.987 90.244C58.7757 90.244 59.3963 90.4832 59.849 90.9615C60.3017 91.4398 60.528 92.0827 60.528 92.89L60.521 98ZM51.484 98H50.231V90.44H51.344V92.463H51.484V98ZM55.999 98H54.76L54.767 93.212C54.767 92.6333 54.6177 92.1795 54.319 91.8505C54.0203 91.5215 53.6237 91.357 53.129 91.357C52.639 91.357 52.2423 91.525 51.939 91.861C51.6357 92.197 51.484 92.6427 51.484 93.198L50.826 92.806C50.826 92.316 50.9427 91.8773 51.176 91.49C51.4093 91.1027 51.7267 90.7982 52.128 90.5765C52.5293 90.3548 52.9843 90.244 53.493 90.244C54.0017 90.244 54.445 90.3513 54.823 90.566C55.201 90.7807 55.4927 91.0875 55.698 91.4865C55.9033 91.8855 56.006 92.3603 56.006 92.911L55.999 98ZM65.204 98.203C64.3033 98.203 63.5648 98.0058 62.9885 97.6115C62.4122 97.2172 62.0587 96.6653 61.928 95.956L63.202 95.753C63.3047 96.1637 63.5403 96.4892 63.909 96.7295C64.2777 96.9698 64.735 97.09 65.281 97.09C65.799 97.09 66.205 96.9827 66.499 96.768C66.793 96.5533 66.94 96.2617 66.94 95.893C66.94 95.6783 66.891 95.5045 66.793 95.3715C66.695 95.2385 66.4932 95.1137 66.1875 94.997C65.8818 94.8803 65.421 94.7403 64.805 94.577C64.1377 94.3997 63.6127 94.2153 63.23 94.024C62.8473 93.8327 62.5743 93.611 62.411 93.359C62.2477 93.107 62.166 92.8013 62.166 92.442C62.166 91.9987 62.2873 91.6102 62.53 91.2765C62.7727 90.9428 63.1122 90.685 63.5485 90.503C63.9848 90.321 64.4923 90.23 65.071 90.23C65.645 90.23 66.1583 90.321 66.611 90.503C67.0637 90.685 67.4288 90.9428 67.7065 91.2765C67.9842 91.6102 68.1487 91.9987 68.2 92.442L66.926 92.673C66.8653 92.267 66.6705 91.9473 66.3415 91.714C66.0125 91.4807 65.589 91.357 65.071 91.343C64.581 91.3243 64.1832 91.4107 63.8775 91.602C63.5718 91.7933 63.419 92.0523 63.419 92.379C63.419 92.561 63.4762 92.7173 63.5905 92.848C63.7048 92.9787 63.9172 93.1023 64.2275 93.219C64.5378 93.3357 64.9893 93.4687 65.582 93.618C66.2493 93.786 66.7755 93.9692 67.1605 94.1675C67.5455 94.3658 67.8197 94.5992 67.983 94.8675C68.1463 95.1358 68.228 95.466 68.228 95.858C68.228 96.586 67.9597 97.1588 67.423 97.5765C66.8863 97.9942 66.1467 98.203 65.204 98.203Z" fill="#1A1A1A"/>
<path fill-rule="evenodd" clip-rule="evenodd" d="M92.2576 94C92.2576 97.682 89.273 100.667 85.591 100.667C81.909 100.667 78.9243 97.682 78.9243 94C78.9243 90.318 81.909 87.3333 85.591 87.3333C89.273 87.3333 92.2576 90.318 92.2576 94ZM83.571 91.98C83.7662 91.785 84.0824 91.785 84.2776 91.98L85.591 93.2933L86.9043 91.98C87.1013 91.7964 87.4083 91.8018 87.5987 91.9923C87.7891 92.1827 87.7946 92.4897 87.611 92.6867L86.2976 94L87.611 95.3133C87.7946 95.5103 87.7891 95.8173 87.5987 96.0077C87.4083 96.1982 87.1013 96.2036 86.9043 96.02L85.591 94.7067L84.2776 96.02C84.0806 96.2036 83.7736 96.1982 83.5832 96.0077C83.3928 95.8173 83.3874 95.5103 83.571 95.3133L84.8843 94L83.571 92.6867C83.376 92.4915 83.376 92.1752 83.571 91.98ZM83.571 91.98C83.7662 91.785 84.0824 91.785 84.2776 91.98L85.591 93.2933L86.9043 91.98C87.1013 91.7964 87.4083 91.8018 87.5987 91.9923C87.7891 92.1827 87.7946 92.4897 87.611 92.6867L86.2976 94L87.611 95.3133C87.7946 95.5103 87.7891 95.8173 87.5987 96.0077C87.4083 96.1982 87.1013 96.2036 86.9043 96.02L85.591 94.7067L84.2776 96.02C84.0806 96.2036 83.7736 96.1982 83.5832 96.0077C83.3928 95.8173 83.3874 95.5103 83.571 95.3133L84.8843 94L83.571 92.6867C83.376 92.4915 83.376 92.1752 83.571 91.98Z" fill="#4A4A4A"/>
</g>
<g filter="url(#filter5_dd_2_64094)">
<rect x="117.591" y="76" width="89" height="36" rx="18" fill="white" shape-rendering="crispEdges"/>
<path d="M135.241 98H133.995V87.92H139.875V89.166H135.241V92.337H139.035V93.583H135.241V98ZM144.145 98.21C143.394 98.21 142.747 98.0397 142.203 97.699C141.659 97.3583 141.24 96.887 140.946 96.285C140.652 95.683 140.505 94.9923 140.505 94.213C140.505 93.4197 140.655 92.7243 140.953 92.127C141.252 91.5297 141.674 91.0642 142.22 90.7305C142.766 90.3968 143.408 90.23 144.145 90.23C144.901 90.23 145.552 90.3992 146.098 90.7375C146.644 91.0758 147.063 91.5448 147.355 92.1445C147.647 92.7442 147.792 93.4337 147.792 94.213C147.792 95.0017 147.645 95.6958 147.351 96.2955C147.057 96.8952 146.637 97.3642 146.091 97.7025C145.545 98.0408 144.897 98.21 144.145 98.21ZM144.145 97.027C144.929 97.027 145.513 96.7657 145.895 96.243C146.278 95.7203 146.469 95.0437 146.469 94.213C146.469 93.359 146.276 92.6788 145.888 92.1725C145.501 91.6662 144.92 91.413 144.145 91.413C143.618 91.413 143.184 91.532 142.843 91.77C142.503 92.008 142.248 92.337 142.08 92.757C141.912 93.177 141.828 93.6623 141.828 94.213C141.828 95.0623 142.024 95.7437 142.416 96.257C142.808 96.7703 143.385 97.027 144.145 97.027ZM152.552 98.21C151.801 98.21 151.154 98.0397 150.61 97.699C150.066 97.3583 149.647 96.887 149.353 96.285C149.059 95.683 148.912 94.9923 148.912 94.213C148.912 93.4197 149.062 92.7243 149.36 92.127C149.659 91.5297 150.081 91.0642 150.627 90.7305C151.173 90.3968 151.815 90.23 152.552 90.23C153.308 90.23 153.959 90.3992 154.505 90.7375C155.051 91.0758 155.47 91.5448 155.762 92.1445C156.054 92.7442 156.199 93.4337 156.199 94.213C156.199 95.0017 156.052 95.6958 155.758 96.2955C155.464 96.8952 155.044 97.3642 154.498 97.7025C153.952 98.0408 153.304 98.21 152.552 98.21ZM152.552 97.027C153.336 97.027 153.92 96.7657 154.302 96.243C154.685 95.7203 154.876 95.0437 154.876 94.213C154.876 93.359 154.683 92.6788 154.295 92.1725C153.908 91.6662 153.327 91.413 152.552 91.413C152.025 91.413 151.591 91.532 151.25 91.77C150.91 92.008 150.655 92.337 150.487 92.757C150.319 93.177 150.235 93.6623 150.235 94.213C150.235 95.0623 150.431 95.7437 150.823 96.257C151.215 96.7703 151.792 97.027 152.552 97.027ZM160.707 98.21C160.003 98.21 159.398 98.0338 158.894 97.6815C158.39 97.3292 158.002 96.852 157.729 96.25C157.456 95.648 157.319 94.969 157.319 94.213C157.319 93.457 157.456 92.778 157.729 92.176C158.002 91.574 158.39 91.0992 158.894 90.7515C159.398 90.4038 160 90.23 160.7 90.23C161.414 90.23 162.014 90.4027 162.499 90.748C162.985 91.0933 163.352 91.567 163.602 92.169C163.852 92.771 163.976 93.4523 163.976 94.213C163.976 94.9643 163.852 95.6422 163.602 96.2465C163.352 96.8508 162.985 97.3292 162.499 97.6815C162.014 98.0338 161.417 98.21 160.707 98.21ZM160.861 97.069C161.37 97.069 161.788 96.9465 162.114 96.7015C162.441 96.4565 162.683 96.1182 162.839 95.6865C162.995 95.2548 163.073 94.7637 163.073 94.213C163.073 93.653 162.995 93.1595 162.839 92.7325C162.683 92.3055 162.443 91.9718 162.121 91.7315C161.799 91.4912 161.391 91.371 160.896 91.371C160.383 91.371 159.96 91.497 159.626 91.749C159.292 92.001 159.045 92.3417 158.884 92.771C158.723 93.2003 158.642 93.681 158.642 94.213C158.642 94.7497 158.724 95.2338 158.887 95.6655C159.051 96.0972 159.297 96.439 159.626 96.691C159.955 96.943 160.367 97.069 160.861 97.069ZM164.186 98H163.073V92.435H162.933V87.92H164.186V98Z" fill="#1A1A1A"/>
<path fill-rule="evenodd" clip-rule="evenodd" d="M188.417 94C188.417 97.682 185.432 100.667 181.75 100.667C178.068 100.667 175.083 97.682 175.083 94C175.083 90.318 178.068 87.3333 181.75 87.3333C185.432 87.3333 188.417 90.318 188.417 94ZM179.73 91.98C179.925 91.785 180.241 91.785 180.437 91.98L181.75 93.2933L183.063 91.98C183.26 91.7964 183.567 91.8018 183.758 91.9923C183.948 92.1827 183.954 92.4897 183.77 92.6867L182.457 94L183.77 95.3133C183.954 95.5103 183.948 95.8173 183.758 96.0077C183.567 96.1982 183.26 96.2036 183.063 96.02L181.75 94.7067L180.437 96.02C180.24 96.2036 179.933 96.1982 179.742 96.0077C179.552 95.8173 179.546 95.5103 179.73 95.3133L181.043 94L179.73 92.6867C179.535 92.4915 179.535 92.1752 179.73 91.98ZM179.73 91.98C179.925 91.785 180.241 91.785 180.437 91.98L181.75 93.2933L183.063 91.98C183.26 91.7964 183.567 91.8018 183.758 91.9923C183.948 92.1827 183.954 92.4897 183.77 92.6867L182.457 94L183.77 95.3133C183.954 95.5103 183.948 95.8173 183.758 96.0077C183.567 96.1982 183.26 96.2036 183.063 96.02L181.75 94.7067L180.437 96.02C180.24 96.2036 179.933 96.1982 179.742 96.0077C179.552 95.8173 179.546 95.5103 179.73 95.3133L181.043 94L179.73 92.6867C179.535 92.4915 179.535 92.1752 179.73 91.98Z" fill="#4A4A4A"/>
</g>
<path d="M230.029 98.21C229.026 98.21 228.174 97.9883 227.474 97.545C226.774 97.1017 226.241 96.4857 225.875 95.697C225.508 94.9083 225.325 93.996 225.325 92.96C225.325 91.924 225.508 91.0117 225.875 90.223C226.241 89.4343 226.774 88.8183 227.474 88.375C228.174 87.9317 229.026 87.71 230.029 87.71C231.196 87.71 232.156 88.0063 232.909 88.599C233.663 89.1917 234.182 89.9897 234.467 90.993L233.2 91.329C232.995 90.5777 232.628 89.985 232.101 89.551C231.574 89.117 230.883 88.9 230.029 88.9C229.278 88.9 228.652 89.0703 228.153 89.411C227.654 89.7517 227.278 90.2265 227.026 90.8355C226.774 91.4445 226.646 92.1527 226.641 92.96C226.636 93.7627 226.76 94.4685 227.012 95.0775C227.264 95.6865 227.642 96.1625 228.146 96.5055C228.65 96.8485 229.278 97.02 230.029 97.02C230.883 97.02 231.574 96.8018 232.101 96.3655C232.628 95.9292 232.995 95.3377 233.2 94.591L234.467 94.927C234.182 95.9257 233.663 96.7225 232.909 97.3175C232.156 97.9125 231.196 98.21 230.029 98.21ZM237.393 98H236.147V87.71H237.393V98ZM242.769 98.21C242.027 98.21 241.379 98.0455 240.826 97.7165C240.273 97.3875 239.843 96.9278 239.535 96.3375C239.227 95.7472 239.073 95.0577 239.073 94.269C239.073 93.443 239.225 92.7278 239.528 92.1235C239.831 91.5192 240.255 91.0525 240.798 90.7235C241.342 90.3945 241.98 90.23 242.713 90.23C243.474 90.23 244.121 90.405 244.655 90.755C245.19 91.105 245.591 91.6043 245.859 92.253C246.128 92.9017 246.243 93.674 246.206 94.57H244.946V94.122C244.932 93.1933 244.743 92.4992 244.379 92.0395C244.015 91.5798 243.474 91.35 242.755 91.35C241.985 91.35 241.399 91.5973 240.998 92.092C240.597 92.5867 240.396 93.296 240.396 94.22C240.396 95.1113 240.597 95.802 240.998 96.292C241.399 96.782 241.971 97.027 242.713 97.027C243.212 97.027 243.646 96.9127 244.015 96.684C244.384 96.4553 244.673 96.1263 244.883 95.697L246.08 96.11C245.786 96.7773 245.344 97.2942 244.753 97.6605C244.163 98.0268 243.502 98.21 242.769 98.21ZM245.562 94.57H239.976V93.569H245.562V94.57ZM249.769 98.21C249.204 98.21 248.732 98.1062 248.351 97.8985C247.971 97.6908 247.684 97.4167 247.49 97.076C247.297 96.7353 247.2 96.362 247.2 95.956C247.2 95.5593 247.276 95.2152 247.427 94.9235C247.579 94.6318 247.793 94.3892 248.068 94.1955C248.343 94.0018 248.672 93.849 249.055 93.737C249.414 93.639 249.817 93.5538 250.262 93.4815C250.708 93.4092 251.16 93.3427 251.617 93.282C252.074 93.2213 252.501 93.163 252.898 93.107L252.45 93.366C252.464 92.694 252.33 92.197 252.047 91.875C251.765 91.553 251.279 91.392 250.588 91.392C250.131 91.392 249.73 91.4958 249.387 91.7035C249.044 91.9112 248.803 92.2483 248.663 92.715L247.48 92.358C247.662 91.6953 248.014 91.175 248.537 90.797C249.06 90.419 249.748 90.23 250.602 90.23C251.288 90.23 251.877 90.3525 252.369 90.5975C252.862 90.8425 253.215 91.2123 253.43 91.707C253.537 91.9403 253.605 92.1935 253.633 92.4665C253.661 92.7395 253.675 93.0253 253.675 93.324V98H252.569V96.187L252.828 96.355C252.543 96.9663 252.145 97.4283 251.634 97.741C251.123 98.0537 250.502 98.21 249.769 98.21ZM249.958 97.167C250.406 97.167 250.794 97.0865 251.123 96.9255C251.452 96.7645 251.717 96.5522 251.918 96.2885C252.119 96.0248 252.249 95.7367 252.31 95.424C252.38 95.1907 252.418 94.9305 252.425 94.6435C252.432 94.3565 252.436 94.136 252.436 93.982L252.87 94.171C252.464 94.227 252.065 94.2807 251.673 94.332C251.281 94.3833 250.91 94.4382 250.56 94.4965C250.21 94.5548 249.895 94.6237 249.615 94.703C249.41 94.7683 249.217 94.8523 249.037 94.955C248.858 95.0577 248.713 95.1895 248.603 95.3505C248.494 95.5115 248.439 95.711 248.439 95.949C248.439 96.1543 248.491 96.3503 248.596 96.537C248.701 96.7237 248.865 96.8753 249.086 96.992C249.308 97.1087 249.599 97.167 249.958 97.167ZM256.748 98H255.495V90.44H256.608V92.267L256.426 92.029C256.515 91.7957 256.63 91.581 256.772 91.385C256.915 91.189 257.075 91.028 257.252 90.902C257.448 90.7433 257.67 90.622 257.917 90.538C258.164 90.454 258.416 90.4038 258.673 90.3875C258.93 90.3712 259.17 90.3887 259.394 90.44V91.609C259.133 91.539 258.846 91.5203 258.533 91.553C258.22 91.5857 257.931 91.7 257.665 91.896C257.422 92.0687 257.234 92.2787 257.101 92.526C256.968 92.7733 256.876 93.0405 256.825 93.3275C256.774 93.6145 256.748 93.9073 256.748 94.206V98ZM264.154 98H262.859L266.233 87.92H267.969L271.343 98H270.048L266.891 88.648H267.283L264.154 98ZM269.719 95.641H264.483V94.472H269.719V95.641ZM273.989 98H272.743V87.71H273.989V98ZM277.475 98H276.229V87.71H277.475V98Z" fill="#4A4A4A"/>
<mask id="path-32-inside-1_2_64094" fill="white">
<path d="M0 855.636H430V932.636H0V855.636Z"/>
</mask>
<path d="M0 855.636H430V932.636H0V855.636Z" fill="white"/>
<path d="M0 855.636V856.364H430V855.636V854.909H0V855.636Z" fill="#E5E5E5" mask="url(#path-32-inside-1_2_64094)"/>
<path d="M39.811 877.495C39.375 877.991 39.375 878.843 39.375 880.545V889.939C39.375 891.145 39.375 891.748 39.69 892.202C40.004 892.656 40.554 892.847 41.654 893.228L42.948 893.677C43.649 893.92 44.188 894.107 44.641 894.227C44.937 894.306 45.208 894.074 45.208 893.768V878.618C45.2009 878.368 45.0263 878.155 44.783 878.098C44.394 877.999 43.926 877.837 43.285 877.615C41.732 877.076 40.955 876.807 40.365 877.08C40.1538 877.179 39.9653 877.32 39.811 877.495Z" fill="#2D7A3E"/>
<path d="M49.995 875.829L48.459 876.894C47.904 877.279 47.496 877.562 47.149 877.763C46.9833 877.857 46.8792 878.031 46.875 878.221V893.268C46.875 893.638 47.259 893.87 47.571 893.67C47.906 893.456 48.29 893.19 48.755 892.868L50.291 891.803C50.846 891.418 51.254 891.135 51.601 890.934C51.7667 890.84 51.8708 890.666 51.875 890.476V875.428C51.875 875.057 51.491 874.826 51.179 875.025C50.844 875.24 50.46 875.506 49.995 875.829Z" fill="#2D7A3E"/>
<path d="M57.095 875.468L55.802 875.02C55.101 874.777 54.562 874.59 54.109 874.47C53.813 874.391 53.542 874.623 53.542 874.929V890.079C53.5491 890.329 53.7237 890.542 53.967 890.599C54.356 890.698 54.824 890.859 55.465 891.082C57.018 891.621 57.795 891.89 58.385 891.617C58.5962 891.518 58.7847 891.377 58.939 891.202C59.375 890.706 59.375 889.854 59.375 888.152V878.758C59.375 877.552 59.375 876.948 59.06 876.495C58.746 876.041 58.196 875.85 57.096 875.469" fill="#2D7A3E"/>
<path d="M38.6242 911.364H37.6102V902.724H38.5822L41.8462 909.606L45.0922 902.724H46.0762V911.358H45.0622V905.07L42.1282 911.364H41.5582L38.6242 905.07V911.364ZM49.5982 911.544C49.1142 911.544 48.7092 911.455 48.3832 911.277C48.0572 911.099 47.8112 910.864 47.6452 910.572C47.4792 910.28 47.3962 909.96 47.3962 909.612C47.3962 909.272 47.4612 908.977 47.5912 908.727C47.7212 908.477 47.9042 908.269 48.1402 908.103C48.3762 907.937 48.6582 907.806 48.9862 907.71C49.2942 907.626 49.6392 907.553 50.0212 907.491C50.4032 907.429 50.7902 907.372 51.1822 907.32C51.5742 907.268 51.9402 907.218 52.2802 907.17L51.8962 907.392C51.9082 906.816 51.7932 906.39 51.5512 906.114C51.3092 905.838 50.8922 905.7 50.3002 905.7C49.9082 905.7 49.5652 905.789 49.2712 905.967C48.9772 906.145 48.7702 906.434 48.6502 906.834L47.6362 906.528C47.7922 905.96 48.0942 905.514 48.5422 905.19C48.9902 904.866 49.5802 904.704 50.3122 904.704C50.9002 904.704 51.4052 904.809 51.8272 905.019C52.2492 905.229 52.5522 905.546 52.7362 905.97C52.8282 906.17 52.8862 906.387 52.9102 906.621C52.9342 906.855 52.9462 907.1 52.9462 907.356V911.364H51.9982V909.81L52.2202 909.954C51.9762 910.478 51.6352 910.874 51.1972 911.142C50.7592 911.41 50.2262 911.544 49.5982 911.544ZM49.7602 910.65C50.1442 910.65 50.4772 910.581 50.7592 910.443C51.0412 910.305 51.2682 910.123 51.4402 909.897C51.6122 909.671 51.7242 909.424 51.7762 909.156C51.8362 908.956 51.8692 908.733 51.8752 908.487C51.8812 908.241 51.8842 908.052 51.8842 907.92L52.2562 908.082C51.9082 908.13 51.5662 908.176 51.2302 908.22C50.8942 908.264 50.5762 908.311 50.2762 908.361C49.9762 908.411 49.7062 908.47 49.4662 908.538C49.2902 908.594 49.1252 908.666 48.9712 908.754C48.8172 908.842 48.6932 908.955 48.5992 909.093C48.5052 909.231 48.4582 909.402 48.4582 909.606C48.4582 909.782 48.5032 909.95 48.5932 910.11C48.6832 910.27 48.8232 910.4 49.0132 910.5C49.2032 910.6 49.4522 910.65 49.7602 910.65ZM57.4822 911.544C56.8742 911.544 56.3622 911.393 55.9462 911.091C55.5302 910.789 55.2152 910.379 55.0012 909.861C54.7872 909.343 54.6802 908.762 54.6802 908.118C54.6802 907.466 54.7872 906.882 55.0012 906.366C55.2152 905.85 55.5312 905.444 55.9492 905.148C56.3672 904.852 56.8802 904.704 57.4882 904.704C58.0882 904.704 58.6052 904.853 59.0392 905.151C59.4732 905.449 59.8062 905.856 60.0382 906.372C60.2702 906.888 60.3862 907.47 60.3862 908.118C60.3862 908.766 60.2702 909.348 60.0382 909.864C59.8062 910.38 59.4732 910.789 59.0392 911.091C58.6052 911.393 58.0862 911.544 57.4822 911.544ZM55.5742 914.244H54.5002V904.884H55.4542V909.654H55.5742V914.244ZM57.3502 910.566C57.7782 910.566 58.1322 910.458 58.4122 910.242C58.6922 910.026 58.9022 909.733 59.0422 909.363C59.1822 908.993 59.2522 908.578 59.2522 908.118C59.2522 907.662 59.1832 907.25 59.0452 906.882C58.9072 906.514 58.6952 906.222 58.4092 906.006C58.1232 905.79 57.7602 905.682 57.3202 905.682C56.9002 905.682 56.5522 905.785 56.2762 905.991C56.0002 906.197 55.7942 906.483 55.6582 906.849C55.5222 907.215 55.4542 907.638 55.4542 908.118C55.4542 908.59 55.5212 909.011 55.6552 909.381C55.7892 909.751 55.9962 910.041 56.2762 910.251C56.5562 910.461 56.9142 910.566 57.3502 910.566Z" fill="#2D7A3E"/>
<path d="M122.136 883.864C122.136 878.617 126.39 874.364 131.636 874.364C136.883 874.364 141.136 878.617 141.136 883.864C141.136 889.11 136.883 893.364 131.636 893.364C126.39 893.364 122.136 889.11 122.136 883.864Z" stroke="#4A4A4A" stroke-width="1.5"/>
<path d="M138.636 890.864L142.136 894.364" stroke="#4A4A4A" stroke-width="1.5" stroke-linecap="round"/>
<path d="M116.532 911.544C115.928 911.544 115.385 911.443 114.903 911.241C114.421 911.039 114.023 910.752 113.709 910.38C113.395 910.008 113.19 909.566 113.094 909.054L113.994 908.904C114.138 909.464 114.442 909.903 114.906 910.221C115.37 910.539 115.924 910.698 116.568 910.698C116.992 910.698 117.372 910.631 117.708 910.497C118.044 910.363 118.308 910.172 118.5 909.924C118.692 909.676 118.788 909.382 118.788 909.042C118.788 908.818 118.748 908.627 118.668 908.469C118.588 908.311 118.482 908.18 118.35 908.076C118.218 907.972 118.074 907.885 117.918 907.815C117.762 907.745 117.61 907.688 117.462 907.644L115.272 906.99C115.008 906.914 114.764 906.817 114.54 906.699C114.316 906.581 114.121 906.439 113.955 906.273C113.789 906.107 113.66 905.912 113.568 905.688C113.476 905.464 113.43 905.208 113.43 904.92C113.43 904.432 113.558 904.01 113.814 903.654C114.07 903.298 114.42 903.024 114.864 902.832C115.308 902.64 115.814 902.546 116.382 902.55C116.958 902.55 117.473 902.652 117.927 902.856C118.381 903.06 118.756 903.351 119.052 903.729C119.348 904.107 119.544 904.554 119.64 905.07L118.716 905.238C118.656 904.862 118.518 904.536 118.302 904.26C118.086 903.984 117.811 903.771 117.477 903.621C117.143 903.471 116.776 903.394 116.376 903.39C115.988 903.39 115.643 903.455 115.341 903.585C115.039 903.715 114.8 903.892 114.624 904.116C114.448 904.34 114.36 904.596 114.36 904.884C114.36 905.176 114.441 905.41 114.603 905.586C114.765 905.762 114.965 905.9 115.203 906C115.441 906.1 115.672 906.182 115.896 906.246L117.588 906.744C117.764 906.792 117.971 906.861 118.209 906.951C118.447 907.041 118.679 907.169 118.905 907.335C119.131 907.501 119.318 907.718 119.466 907.986C119.614 908.254 119.688 908.594 119.688 909.006C119.688 909.406 119.609 909.764 119.451 910.08C119.293 910.396 119.071 910.662 118.785 910.878C118.499 911.094 118.165 911.259 117.783 911.373C117.401 911.487 116.984 911.544 116.532 911.544ZM123.672 911.544C123.04 911.544 122.493 911.404 122.031 911.124C121.569 910.844 121.21 910.45 120.954 909.942C120.698 909.434 120.57 908.838 120.57 908.154C120.57 907.446 120.696 906.834 120.948 906.318C121.2 905.802 121.555 905.404 122.013 905.124C122.471 904.844 123.012 904.704 123.636 904.704C124.276 904.704 124.822 904.851 125.274 905.145C125.726 905.439 126.068 905.86 126.3 906.408C126.532 906.956 126.638 907.61 126.618 908.37H125.718V908.058C125.702 907.218 125.521 906.584 125.175 906.156C124.829 905.728 124.324 905.514 123.66 905.514C122.964 905.514 122.431 905.74 122.061 906.192C121.691 906.644 121.506 907.288 121.506 908.124C121.506 908.94 121.691 909.573 122.061 910.023C122.431 910.473 122.956 910.698 123.636 910.698C124.1 910.698 124.505 910.591 124.851 910.377C125.197 910.163 125.47 909.854 125.67 909.45L126.492 909.768C126.236 910.332 125.859 910.769 125.361 911.079C124.863 911.389 124.3 911.544 123.672 911.544ZM126.144 908.37H121.194V907.632H126.144V908.37ZM129.678 911.544C129.19 911.544 128.781 911.456 128.451 911.28C128.121 911.104 127.874 910.87 127.71 910.578C127.546 910.286 127.464 909.968 127.464 909.624C127.464 909.272 127.535 908.971 127.677 908.721C127.819 908.471 128.013 908.266 128.259 908.106C128.505 907.946 128.79 907.824 129.114 907.74C129.442 907.66 129.805 907.589 130.203 907.527C130.601 907.465 130.991 907.411 131.373 907.365C131.755 907.319 132.09 907.274 132.378 907.23L132.066 907.422C132.078 906.782 131.954 906.308 131.694 906C131.434 905.692 130.982 905.538 130.338 905.538C129.894 905.538 129.519 905.638 129.213 905.838C128.907 906.038 128.692 906.354 128.568 906.786L127.71 906.534C127.858 905.954 128.156 905.504 128.604 905.184C129.052 904.864 129.634 904.704 130.35 904.704C130.942 904.704 131.445 904.815 131.859 905.037C132.273 905.259 132.566 905.58 132.738 906C132.818 906.188 132.87 906.398 132.894 906.63C132.918 906.862 132.93 907.098 132.93 907.338V911.364H132.144V909.738L132.372 909.834C132.152 910.39 131.81 910.814 131.346 911.106C130.882 911.398 130.326 911.544 129.678 911.544ZM129.78 910.782C130.192 910.782 130.552 910.708 130.86 910.56C131.168 910.412 131.416 910.209 131.604 909.951C131.792 909.693 131.914 909.402 131.97 909.078C132.018 908.87 132.044 908.641 132.048 908.391C132.052 908.141 132.054 907.954 132.054 907.83L132.39 908.004C132.09 908.044 131.765 908.084 131.415 908.124C131.065 908.164 130.721 908.21 130.383 908.262C130.045 908.314 129.74 908.376 129.468 908.448C129.284 908.5 129.106 908.573 128.934 908.667C128.762 908.761 128.621 908.886 128.511 909.042C128.401 909.198 128.346 909.392 128.346 909.624C128.346 909.812 128.393 909.994 128.487 910.17C128.581 910.346 128.733 910.492 128.943 910.608C129.153 910.724 129.432 910.782 129.78 910.782ZM135.372 911.364H134.49V904.884H135.282V906.444L135.126 906.24C135.198 906.048 135.292 905.871 135.408 905.709C135.524 905.547 135.65 905.414 135.786 905.31C135.954 905.162 136.15 905.049 136.374 904.971C136.598 904.893 136.824 904.847 137.052 904.833C137.28 904.819 137.488 904.836 137.676 904.884V905.712C137.44 905.652 137.182 905.638 136.902 905.67C136.622 905.702 136.364 905.814 136.128 906.006C135.912 906.174 135.75 906.375 135.642 906.609C135.534 906.843 135.462 907.091 135.426 907.353C135.39 907.615 135.372 907.874 135.372 908.13V911.364ZM141.384 911.544C140.732 911.544 140.18 911.398 139.728 911.106C139.276 910.814 138.933 910.411 138.699 909.897C138.465 909.383 138.344 908.792 138.336 908.124C138.344 907.444 138.468 906.847 138.708 906.333C138.948 905.819 139.294 905.419 139.746 905.133C140.198 904.847 140.746 904.704 141.39 904.704C142.046 904.704 142.617 904.864 143.103 905.184C143.589 905.504 143.922 905.942 144.102 906.498L143.238 906.774C143.086 906.386 142.845 906.085 142.515 905.871C142.185 905.657 141.808 905.55 141.384 905.55C140.908 905.55 140.514 905.659 140.202 905.877C139.89 906.095 139.658 906.398 139.506 906.786C139.354 907.174 139.276 907.62 139.272 908.124C139.28 908.9 139.46 909.523 139.812 909.993C140.164 910.463 140.688 910.698 141.384 910.698C141.824 910.698 142.199 910.597 142.509 910.395C142.819 910.193 143.054 909.898 143.214 909.51L144.102 909.774C143.862 910.35 143.51 910.789 143.046 911.091C142.582 911.393 142.028 911.544 141.384 911.544ZM150.906 911.364H150.018V908.058C150.018 907.698 149.984 907.367 149.916 907.065C149.848 906.763 149.739 906.499 149.589 906.273C149.439 906.047 149.245 905.872 149.007 905.748C148.769 905.624 148.48 905.562 148.14 905.562C147.828 905.562 147.553 905.616 147.315 905.724C147.077 905.832 146.877 905.987 146.715 906.189C146.553 906.391 146.43 906.636 146.346 906.924C146.262 907.212 146.22 907.54 146.22 907.908L145.596 907.77C145.596 907.106 145.712 906.548 145.944 906.096C146.176 905.644 146.496 905.302 146.904 905.07C147.312 904.838 147.78 904.722 148.308 904.722C148.696 904.722 149.035 904.782 149.325 904.902C149.615 905.022 149.861 905.184 150.063 905.388C150.265 905.592 150.428 905.825 150.552 906.087C150.676 906.349 150.766 906.627 150.822 906.921C150.878 907.215 150.906 907.508 150.906 907.8V911.364ZM146.22 911.364H145.332V902.724H146.13V907.602H146.22V911.364Z" fill="#4A4A4A"/>
<g filter="url(#filter6_dd_2_64094)">
<rect x="186.898" y="844.364" width="56" height="56" rx="28" fill="#2D7A3E" shape-rendering="crispEdges"/>
<path fill-rule="evenodd" clip-rule="evenodd" d="M214.898 884.03C221.341 884.03 226.564 878.807 226.564 872.364C226.564 865.92 221.341 860.697 214.898 860.697C208.454 860.697 203.231 865.92 203.231 872.364C203.231 878.807 208.454 884.03 214.898 884.03ZM215.773 868.864C215.773 868.38 215.381 867.989 214.898 867.989C214.414 867.989 214.023 868.38 214.023 868.864V871.489H211.398C210.914 871.489 210.523 871.88 210.523 872.364C210.523 872.847 210.914 873.239 211.398 873.239H214.023V875.864C214.023 876.347 214.414 876.739 214.898 876.739C215.381 876.739 215.773 876.347 215.773 875.864V873.239H218.398C218.881 873.239 219.273 872.847 219.273 872.364C219.273 871.88 218.881 871.489 218.398 871.489H215.773V868.864Z" fill="white"/>
</g>
<path d="M200.292 919.544C199.432 919.544 198.706 919.353 198.114 918.971C197.522 918.589 197.074 918.06 196.77 917.384C196.466 916.708 196.314 915.928 196.314 915.044C196.314 914.16 196.466 913.38 196.77 912.704C197.074 912.028 197.522 911.499 198.114 911.117C198.706 910.735 199.432 910.544 200.292 910.544C201.296 910.544 202.116 910.801 202.752 911.315C203.388 911.829 203.824 912.518 204.06 913.382L203.16 913.616C202.976 912.932 202.646 912.39 202.17 911.99C201.694 911.59 201.068 911.39 200.292 911.39C199.616 911.39 199.054 911.544 198.606 911.852C198.158 912.16 197.821 912.589 197.595 913.139C197.369 913.689 197.252 914.324 197.244 915.044C197.24 915.764 197.351 916.398 197.577 916.946C197.803 917.494 198.143 917.923 198.597 918.233C199.051 918.543 199.616 918.698 200.292 918.698C201.068 918.698 201.694 918.497 202.17 918.095C202.646 917.693 202.976 917.152 203.16 916.472L204.06 916.706C203.824 917.57 203.388 918.259 202.752 918.773C202.116 919.287 201.296 919.544 200.292 919.544ZM206.262 919.364H205.38V912.884H206.172V914.444L206.016 914.24C206.088 914.048 206.182 913.871 206.298 913.709C206.414 913.547 206.54 913.414 206.676 913.31C206.844 913.162 207.04 913.049 207.264 912.971C207.488 912.893 207.714 912.847 207.942 912.833C208.17 912.819 208.378 912.836 208.566 912.884V913.712C208.33 913.652 208.072 913.638 207.792 913.67C207.512 913.702 207.254 913.814 207.018 914.006C206.802 914.174 206.64 914.375 206.532 914.609C206.424 914.843 206.352 915.091 206.316 915.353C206.28 915.615 206.262 915.874 206.262 916.13V919.364ZM212.328 919.544C211.696 919.544 211.149 919.404 210.687 919.124C210.225 918.844 209.866 918.45 209.61 917.942C209.354 917.434 209.226 916.838 209.226 916.154C209.226 915.446 209.352 914.834 209.604 914.318C209.856 913.802 210.211 913.404 210.669 913.124C211.127 912.844 211.668 912.704 212.292 912.704C212.932 912.704 213.478 912.851 213.93 913.145C214.382 913.439 214.724 913.86 214.956 914.408C215.188 914.956 215.294 915.61 215.274 916.37H214.374V916.058C214.358 915.218 214.177 914.584 213.831 914.156C213.485 913.728 212.98 913.514 212.316 913.514C211.62 913.514 211.087 913.74 210.717 914.192C210.347 914.644 210.162 915.288 210.162 916.124C210.162 916.94 210.347 917.573 210.717 918.023C211.087 918.473 211.612 918.698 212.292 918.698C212.756 918.698 213.161 918.591 213.507 918.377C213.853 918.163 214.126 917.854 214.326 917.45L215.148 917.768C214.892 918.332 214.515 918.769 214.017 919.079C213.519 919.389 212.956 919.544 212.328 919.544ZM214.8 916.37H209.85V915.632H214.8V916.37ZM218.334 919.544C217.846 919.544 217.437 919.456 217.107 919.28C216.777 919.104 216.53 918.87 216.366 918.578C216.202 918.286 216.12 917.968 216.12 917.624C216.12 917.272 216.191 916.971 216.333 916.721C216.475 916.471 216.669 916.266 216.915 916.106C217.161 915.946 217.446 915.824 217.77 915.74C218.098 915.66 218.461 915.589 218.859 915.527C219.257 915.465 219.647 915.411 220.029 915.365C220.411 915.319 220.746 915.274 221.034 915.23L220.722 915.422C220.734 914.782 220.61 914.308 220.35 914C220.09 913.692 219.638 913.538 218.994 913.538C218.55 913.538 218.175 913.638 217.869 913.838C217.563 914.038 217.348 914.354 217.224 914.786L216.366 914.534C216.514 913.954 216.812 913.504 217.26 913.184C217.708 912.864 218.29 912.704 219.006 912.704C219.598 912.704 220.101 912.815 220.515 913.037C220.929 913.259 221.222 913.58 221.394 914C221.474 914.188 221.526 914.398 221.55 914.63C221.574 914.862 221.586 915.098 221.586 915.338V919.364H220.8V917.738L221.028 917.834C220.808 918.39 220.466 918.814 220.002 919.106C219.538 919.398 218.982 919.544 218.334 919.544ZM218.436 918.782C218.848 918.782 219.208 918.708 219.516 918.56C219.824 918.412 220.072 918.209 220.26 917.951C220.448 917.693 220.57 917.402 220.626 917.078C220.674 916.87 220.7 916.641 220.704 916.391C220.708 916.141 220.71 915.954 220.71 915.83L221.046 916.004C220.746 916.044 220.421 916.084 220.071 916.124C219.721 916.164 219.377 916.21 219.039 916.262C218.701 916.314 218.396 916.376 218.124 916.448C217.94 916.5 217.762 916.573 217.59 916.667C217.418 916.761 217.277 916.886 217.167 917.042C217.057 917.198 217.002 917.392 217.002 917.624C217.002 917.812 217.049 917.994 217.143 918.17C217.237 918.346 217.389 918.492 217.599 918.608C217.809 918.724 218.088 918.782 218.436 918.782ZM226.674 918.59V919.364C226.31 919.44 225.951 919.47 225.597 919.454C225.243 919.438 224.927 919.362 224.649 919.226C224.371 919.09 224.16 918.878 224.016 918.59C223.9 918.35 223.837 918.107 223.827 917.861C223.817 917.615 223.812 917.334 223.812 917.018V911.084H224.688V916.982C224.688 917.254 224.691 917.481 224.697 917.663C224.703 917.845 224.744 918.006 224.82 918.146C224.964 918.414 225.193 918.574 225.507 918.626C225.821 918.678 226.21 918.666 226.674 918.59ZM226.674 913.64H222.426V912.884H226.674V913.64ZM230.454 919.544C229.822 919.544 229.275 919.404 228.813 919.124C228.351 918.844 227.992 918.45 227.736 917.942C227.48 917.434 227.352 916.838 227.352 916.154C227.352 915.446 227.478 914.834 227.73 914.318C227.982 913.802 228.337 913.404 228.795 913.124C229.253 912.844 229.794 912.704 230.418 912.704C231.058 912.704 231.604 912.851 232.056 913.145C232.508 913.439 232.85 913.86 233.082 914.408C233.314 914.956 233.42 915.61 233.4 916.37H232.5V916.058C232.484 915.218 232.303 914.584 231.957 914.156C231.611 913.728 231.106 913.514 230.442 913.514C229.746 913.514 229.213 913.74 228.843 914.192C228.473 914.644 228.288 915.288 228.288 916.124C228.288 916.94 228.473 917.573 228.843 918.023C229.213 918.473 229.738 918.698 230.418 918.698C230.882 918.698 231.287 918.591 231.633 918.377C231.979 918.163 232.252 917.854 232.452 917.45L233.274 917.768C233.018 918.332 232.641 918.769 232.143 919.079C231.645 919.389 231.082 919.544 230.454 919.544ZM232.926 916.37H227.976V915.632H232.926V916.37Z" fill="#4A4A4A"/>
<path fill-rule="evenodd" clip-rule="evenodd" d="M306.659 883.462V888.455C306.659 891.551 306.659 893.1 305.925 893.776C305.575 894.099 305.133 894.302 304.662 894.356C303.675 894.469 302.522 893.449 300.217 891.41C299.197 890.509 298.688 890.058 298.099 889.94C297.809 889.88 297.509 889.88 297.219 889.94C296.629 890.058 296.12 890.509 295.101 891.41C292.796 893.449 291.643 894.469 290.656 894.355C290.184 894.3 289.742 894.098 289.393 893.776C288.659 893.1 288.659 891.552 288.659 888.455V883.461C288.659 879.174 288.659 877.03 289.977 875.697C291.295 874.364 293.417 874.364 297.659 874.364C301.901 874.364 304.023 874.364 305.341 875.696C306.659 877.028 306.659 879.174 306.659 883.462ZM293.909 878.364C293.909 877.949 294.245 877.614 294.659 877.614H300.659C301.073 877.614 301.409 877.949 301.409 878.364C301.409 878.778 301.073 879.114 300.659 879.114H294.659C294.245 879.114 293.909 878.778 293.909 878.364ZM293.909 878.364C293.909 877.949 294.245 877.614 294.659 877.614H300.659C301.073 877.614 301.409 877.949 301.409 878.364C301.409 878.778 301.073 879.114 300.659 879.114H294.659C294.245 879.114 293.909 878.778 293.909 878.364Z" fill="#4A4A4A"/>
<path d="M284.688 911.544C284.084 911.544 283.541 911.443 283.059 911.241C282.577 911.039 282.179 910.752 281.865 910.38C281.551 910.008 281.346 909.566 281.25 909.054L282.15 908.904C282.294 909.464 282.598 909.903 283.062 910.221C283.526 910.539 284.08 910.698 284.724 910.698C285.148 910.698 285.528 910.631 285.864 910.497C286.2 910.363 286.464 910.172 286.656 909.924C286.848 909.676 286.944 909.382 286.944 909.042C286.944 908.818 286.904 908.627 286.824 908.469C286.744 908.311 286.638 908.18 286.506 908.076C286.374 907.972 286.23 907.885 286.074 907.815C285.918 907.745 285.766 907.688 285.618 907.644L283.428 906.99C283.164 906.914 282.92 906.817 282.696 906.699C282.472 906.581 282.277 906.439 282.111 906.273C281.945 906.107 281.816 905.912 281.724 905.688C281.632 905.464 281.586 905.208 281.586 904.92C281.586 904.432 281.714 904.01 281.97 903.654C282.226 903.298 282.576 903.024 283.02 902.832C283.464 902.64 283.97 902.546 284.538 902.55C285.114 902.55 285.629 902.652 286.083 902.856C286.537 903.06 286.912 903.351 287.208 903.729C287.504 904.107 287.7 904.554 287.796 905.07L286.872 905.238C286.812 904.862 286.674 904.536 286.458 904.26C286.242 903.984 285.967 903.771 285.633 903.621C285.299 903.471 284.932 903.394 284.532 903.39C284.144 903.39 283.799 903.455 283.497 903.585C283.195 903.715 282.956 903.892 282.78 904.116C282.604 904.34 282.516 904.596 282.516 904.884C282.516 905.176 282.597 905.41 282.759 905.586C282.921 905.762 283.121 905.9 283.359 906C283.597 906.1 283.828 906.182 284.052 906.246L285.744 906.744C285.92 906.792 286.127 906.861 286.365 906.951C286.603 907.041 286.835 907.169 287.061 907.335C287.287 907.501 287.474 907.718 287.622 907.986C287.77 908.254 287.844 908.594 287.844 909.006C287.844 909.406 287.765 909.764 287.607 910.08C287.449 910.396 287.227 910.662 286.941 910.878C286.655 911.094 286.321 911.259 285.939 911.373C285.557 911.487 285.14 911.544 284.688 911.544ZM290.94 911.544C290.452 911.544 290.043 911.456 289.713 911.28C289.383 911.104 289.136 910.87 288.972 910.578C288.808 910.286 288.726 909.968 288.726 909.624C288.726 909.272 288.797 908.971 288.939 908.721C289.081 908.471 289.275 908.266 289.521 908.106C289.767 907.946 290.052 907.824 290.376 907.74C290.704 907.66 291.067 907.589 291.465 907.527C291.863 907.465 292.253 907.411 292.635 907.365C293.017 907.319 293.352 907.274 293.64 907.23L293.328 907.422C293.34 906.782 293.216 906.308 292.956 906C292.696 905.692 292.244 905.538 291.6 905.538C291.156 905.538 290.781 905.638 290.475 905.838C290.169 906.038 289.954 906.354 289.83 906.786L288.972 906.534C289.12 905.954 289.418 905.504 289.866 905.184C290.314 904.864 290.896 904.704 291.612 904.704C292.204 904.704 292.707 904.815 293.121 905.037C293.535 905.259 293.828 905.58 294 906C294.08 906.188 294.132 906.398 294.156 906.63C294.18 906.862 294.192 907.098 294.192 907.338V911.364H293.406V909.738L293.634 909.834C293.414 910.39 293.072 910.814 292.608 911.106C292.144 911.398 291.588 911.544 290.94 911.544ZM291.042 910.782C291.454 910.782 291.814 910.708 292.122 910.56C292.43 910.412 292.678 910.209 292.866 909.951C293.054 909.693 293.176 909.402 293.232 909.078C293.28 908.87 293.306 908.641 293.31 908.391C293.314 908.141 293.316 907.954 293.316 907.83L293.652 908.004C293.352 908.044 293.027 908.084 292.677 908.124C292.327 908.164 291.983 908.21 291.645 908.262C291.307 908.314 291.002 908.376 290.73 908.448C290.546 908.5 290.368 908.573 290.196 908.667C290.024 908.761 289.883 908.886 289.773 909.042C289.663 909.198 289.608 909.392 289.608 909.624C289.608 909.812 289.655 909.994 289.749 910.17C289.843 910.346 289.995 910.492 290.205 910.608C290.415 910.724 290.694 910.782 291.042 910.782ZM298.176 911.364H297.264L294.912 904.884H295.806L297.72 910.212L299.622 904.884H300.528L298.176 911.364ZM304.11 911.544C303.478 911.544 302.931 911.404 302.469 911.124C302.007 910.844 301.648 910.45 301.392 909.942C301.136 909.434 301.008 908.838 301.008 908.154C301.008 907.446 301.134 906.834 301.386 906.318C301.638 905.802 301.993 905.404 302.451 905.124C302.909 904.844 303.45 904.704 304.074 904.704C304.714 904.704 305.26 904.851 305.712 905.145C306.164 905.439 306.506 905.86 306.738 906.408C306.97 906.956 307.076 907.61 307.056 908.37H306.156V908.058C306.14 907.218 305.959 906.584 305.613 906.156C305.267 905.728 304.762 905.514 304.098 905.514C303.402 905.514 302.869 905.74 302.499 906.192C302.129 906.644 301.944 907.288 301.944 908.124C301.944 908.94 302.129 909.573 302.499 910.023C302.869 910.473 303.394 910.698 304.074 910.698C304.538 910.698 304.943 910.591 305.289 910.377C305.635 910.163 305.908 909.854 306.108 909.45L306.93 909.768C306.674 910.332 306.297 910.769 305.799 911.079C305.301 911.389 304.738 911.544 304.11 911.544ZM306.582 908.37H301.632V907.632H306.582V908.37ZM310.896 911.544C310.292 911.544 309.776 911.393 309.348 911.091C308.92 910.789 308.592 910.38 308.364 909.864C308.136 909.348 308.022 908.766 308.022 908.118C308.022 907.474 308.135 906.894 308.361 906.378C308.587 905.862 308.912 905.454 309.336 905.154C309.76 904.854 310.268 904.704 310.86 904.704C311.468 904.704 311.98 904.852 312.396 905.148C312.812 905.444 313.127 905.849 313.341 906.363C313.555 906.877 313.662 907.462 313.662 908.118C313.662 908.762 313.556 909.343 313.344 909.861C313.132 910.379 312.82 910.789 312.408 911.091C311.996 911.393 311.492 911.544 310.896 911.544ZM310.986 910.722C311.446 910.722 311.826 910.61 312.126 910.386C312.426 910.162 312.65 909.853 312.798 909.459C312.946 909.065 313.02 908.618 313.02 908.118C313.02 907.61 312.946 907.161 312.798 906.771C312.65 906.381 312.427 906.076 312.129 905.856C311.831 905.636 311.456 905.526 311.004 905.526C310.54 905.526 310.156 905.64 309.852 905.868C309.548 906.096 309.323 906.406 309.177 906.798C309.031 907.19 308.958 907.63 308.958 908.118C308.958 908.61 309.033 909.053 309.183 909.447C309.333 909.841 309.558 910.152 309.858 910.38C310.158 910.608 310.534 910.722 310.986 910.722ZM313.812 911.364H313.02V906.486H312.924V902.724H313.812V911.364Z" fill="#4A4A4A"/>
<path d="M376.42 878.364C376.42 876.155 378.211 874.364 380.42 874.364C382.63 874.364 384.42 876.155 384.42 878.364C384.42 880.573 382.63 882.364 380.42 882.364C378.211 882.364 376.42 880.573 376.42 878.364Z" fill="#4A4A4A"/>
<path d="M388.42 889.864C388.42 892.349 388.42 894.364 380.42 894.364C372.42 894.364 372.42 892.349 372.42 889.864C372.42 887.379 376.002 885.364 380.42 885.364C384.838 885.364 388.42 887.379 388.42 889.864Z" fill="#4A4A4A"/>
<path d="M364.534 911.364H363.652V902.724H366.988C367.072 902.724 367.167 902.727 367.273 902.733C367.379 902.739 367.486 902.752 367.594 902.772C368.046 902.84 368.429 902.997 368.743 903.243C369.057 903.489 369.295 903.798 369.457 904.17C369.619 904.542 369.7 904.954 369.7 905.406C369.7 905.854 369.618 906.264 369.454 906.636C369.29 907.008 369.051 907.317 368.737 907.563C368.423 907.809 368.042 907.966 367.594 908.034C367.486 908.05 367.379 908.062 367.273 908.07C367.167 908.078 367.072 908.082 366.988 908.082H364.534V911.364ZM364.534 903.57V907.242H366.964C367.036 907.242 367.12 907.238 367.216 907.23C367.312 907.222 367.406 907.208 367.498 907.188C367.794 907.124 368.037 907.002 368.227 906.822C368.417 906.642 368.559 906.428 368.653 906.18C368.747 905.932 368.794 905.674 368.794 905.406C368.794 905.138 368.747 904.879 368.653 904.629C368.559 904.379 368.417 904.164 368.227 903.984C368.037 903.804 367.794 903.682 367.498 903.618C367.406 903.598 367.312 903.585 367.216 903.579C367.12 903.573 367.036 903.57 366.964 903.57H364.534ZM371.782 911.364H370.9V904.884H371.692V906.444L371.536 906.24C371.608 906.048 371.702 905.871 371.818 905.709C371.934 905.547 372.06 905.414 372.196 905.31C372.364 905.162 372.56 905.049 372.784 904.971C373.008 904.893 373.234 904.847 373.462 904.833C373.69 904.819 373.898 904.836 374.086 904.884V905.712C373.85 905.652 373.592 905.638 373.312 905.67C373.032 905.702 372.774 905.814 372.538 906.006C372.322 906.174 372.16 906.375 372.052 906.609C371.944 906.843 371.872 907.091 371.836 907.353C371.8 907.615 371.782 907.874 371.782 908.13V911.364ZM377.812 911.544C377.168 911.544 376.618 911.398 376.162 911.106C375.706 910.814 375.356 910.41 375.112 909.894C374.868 909.378 374.746 908.786 374.746 908.118C374.746 907.438 374.87 906.842 375.118 906.33C375.366 905.818 375.719 905.419 376.177 905.133C376.635 904.847 377.18 904.704 377.812 904.704C378.46 904.704 379.013 904.849 379.471 905.139C379.929 905.429 380.279 905.831 380.521 906.345C380.763 906.859 380.884 907.45 380.884 908.118C380.884 908.798 380.762 909.395 380.518 909.909C380.274 910.423 379.922 910.824 379.462 911.112C379.002 911.4 378.452 911.544 377.812 911.544ZM377.812 910.698C378.532 910.698 379.068 910.459 379.42 909.981C379.772 909.503 379.948 908.882 379.948 908.118C379.948 907.334 379.771 906.71 379.417 906.246C379.063 905.782 378.528 905.55 377.812 905.55C377.328 905.55 376.929 905.659 376.615 905.877C376.301 906.095 376.067 906.397 375.913 906.783C375.759 907.169 375.682 907.614 375.682 908.118C375.682 908.898 375.862 909.523 376.222 909.993C376.582 910.463 377.112 910.698 377.812 910.698ZM383.728 911.364H382.846V904.404C382.846 904.236 382.855 904.07 382.873 903.906C382.891 903.742 382.928 903.585 382.984 903.435C383.04 903.285 383.128 903.146 383.248 903.018C383.38 902.874 383.524 902.769 383.68 902.703C383.836 902.637 383.999 902.594 384.169 902.574C384.339 902.554 384.506 902.544 384.67 902.544H385.498V903.288H384.73C384.394 903.288 384.143 903.37 383.977 903.534C383.811 903.698 383.728 903.956 383.728 904.308V911.364ZM385.498 905.64H381.724V904.884H385.498V905.64ZM387.64 903.654H386.758V902.664H387.64V903.654ZM387.64 911.364H386.758V904.884H387.64V911.364ZM390.442 911.364H389.56V902.544H390.442V911.364ZM394.984 911.544C394.352 911.544 393.805 911.404 393.343 911.124C392.881 910.844 392.522 910.45 392.266 909.942C392.01 909.434 391.882 908.838 391.882 908.154C391.882 907.446 392.008 906.834 392.26 906.318C392.512 905.802 392.867 905.404 393.325 905.124C393.783 904.844 394.324 904.704 394.948 904.704C395.588 904.704 396.134 904.851 396.586 905.145C397.038 905.439 397.38 905.86 397.612 906.408C397.844 906.956 397.95 907.61 397.93 908.37H397.03V908.058C397.014 907.218 396.833 906.584 396.487 906.156C396.141 905.728 395.636 905.514 394.972 905.514C394.276 905.514 393.743 905.74 393.373 906.192C393.003 906.644 392.818 907.288 392.818 908.124C392.818 908.94 393.003 909.573 393.373 910.023C393.743 910.473 394.268 910.698 394.948 910.698C395.412 910.698 395.817 910.591 396.163 910.377C396.509 910.163 396.782 909.854 396.982 909.45L397.804 909.768C397.548 910.332 397.171 910.769 396.673 911.079C396.175 911.389 395.612 911.544 394.984 911.544ZM397.456 908.37H392.506V907.632H397.456V908.37Z" fill="#4A4A4A"/>
</g>
</g>
<defs>
<filter id="filter0_dd_2_64094" x="337.818" y="762.364" width="80" height="80" filterUnits="userSpaceOnUse" color-interpolation-filters="sRGB">
<feFlood flood-opacity="0" result="BackgroundImageFix"/>
<feColorMatrix in="SourceAlpha" type="matrix" values="0 0 0 0 0 0 0 0 0 0 0 0 0 0 0 0 0 0 127 0" result="hardAlpha"/>
<feMorphology radius="3" operator="erode" in="SourceAlpha" result="effect1_dropShadow_2_64094"/>
<feOffset dy="10"/>
<feGaussianBlur stdDeviation="7.5"/>
<feComposite in2="hardAlpha" operator="out"/>
<feColorMatrix type="matrix" values="0 0 0 0 0 0 0 0 0 0 0 0 0 0 0 0 0 0 0.1 0"/>
<feBlend mode="normal" in2="BackgroundImageFix" result="effect1_dropShadow_2_64094"/>
<feColorMatrix in="SourceAlpha" type="matrix" values="0 0 0 0 0 0 0 0 0 0 0 0 0 0 0 0 0 0 127 0" result="hardAlpha"/>
<feMorphology radius="4" operator="erode" in="SourceAlpha" result="effect2_dropShadow_2_64094"/>
<feOffset dy="4"/>
<feGaussianBlur stdDeviation="3"/>
<feComposite in2="hardAlpha" operator="out"/>
<feColorMatrix type="matrix" values="0 0 0 0 0 0 0 0 0 0 0 0 0 0 0 0 0 0 0.1 0"/>
<feBlend mode="normal" in2="effect1_dropShadow_2_64094" result="effect2_dropShadow_2_64094"/>
<feBlend mode="normal" in="SourceGraphic" in2="effect2_dropShadow_2_64094" result="shape"/>
</filter>
<filter id="filter1_dd_2_64094" x="4" y="14" width="72" height="72" filterUnits="userSpaceOnUse" color-interpolation-filters="sRGB">
<feFlood flood-opacity="0" result="BackgroundImageFix"/>
<feColorMatrix in="SourceAlpha" type="matrix" values="0 0 0 0 0 0 0 0 0 0 0 0 0 0 0 0 0 0 127 0" result="hardAlpha"/>
<feMorphology radius="3" operator="erode" in="SourceAlpha" result="effect1_dropShadow_2_64094"/>
<feOffset dy="10"/>
<feGaussianBlur stdDeviation="7.5"/>
<feComposite in2="hardAlpha" operator="out"/>
<feColorMatrix type="matrix" values="0 0 0 0 0 0 0 0 0 0 0 0 0 0 0 0 0 0 0.1 0"/>
<feBlend mode="normal" in2="BackgroundImageFix" result="effect1_dropShadow_2_64094"/>
<feColorMatrix in="SourceAlpha" type="matrix" values="0 0 0 0 0 0 0 0 0 0 0 0 0 0 0 0 0 0 127 0" result="hardAlpha"/>
<feMorphology radius="4" operator="erode" in="SourceAlpha" result="effect2_dropShadow_2_64094"/>
<feOffset dy="4"/>
<feGaussianBlur stdDeviation="3"/>
<feComposite in2="hardAlpha" operator="out"/>
<feColorMatrix type="matrix" values="0 0 0 0 0 0 0 0 0 0 0 0 0 0 0 0 0 0 0.1 0"/>
<feBlend mode="normal" in2="effect1_dropShadow_2_64094" result="effect2_dropShadow_2_64094"/>
<feBlend mode="normal" in="SourceGraphic" in2="effect2_dropShadow_2_64094" result="shape"/>
</filter>
<filter id="filter2_dd_2_64094" x="64" y="14" width="302" height="72" filterUnits="userSpaceOnUse" color-interpolation-filters="sRGB">
<feFlood flood-opacity="0" result="BackgroundImageFix"/>
<feColorMatrix in="SourceAlpha" type="matrix" values="0 0 0 0 0 0 0 0 0 0 0 0 0 0 0 0 0 0 127 0" result="hardAlpha"/>
<feMorphology radius="3" operator="erode" in="SourceAlpha" result="effect1_dropShadow_2_64094"/>
<feOffset dy="10"/>
<feGaussianBlur stdDeviation="7.5"/>
<feComposite in2="hardAlpha" operator="out"/>
<feColorMatrix type="matrix" values="0 0 0 0 0 0 0 0 0 0 0 0 0 0 0 0 0 0 0.1 0"/>
<feBlend mode="normal" in2="BackgroundImageFix" result="effect1_dropShadow_2_64094"/>
<feColorMatrix in="SourceAlpha" type="matrix" values="0 0 0 0 0 0 0 0 0 0 0 0 0 0 0 0 0 0 127 0" result="hardAlpha"/>
<feMorphology radius="4" operator="erode" in="SourceAlpha" result="effect2_dropShadow_2_64094"/>
<feOffset dy="4"/>
<feGaussianBlur stdDeviation="3"/>
<feComposite in2="hardAlpha" operator="out"/>
<feColorMatrix type="matrix" values="0 0 0 0 0 0 0 0 0 0 0 0 0 0 0 0 0 0 0.1 0"/>
<feBlend mode="normal" in2="effect1_dropShadow_2_64094" result="effect2_dropShadow_2_64094"/>
<feBlend mode="normal" in="SourceGraphic" in2="effect2_dropShadow_2_64094" result="shape"/>
</filter>
<filter id="filter3_dd_2_64094" x="353.818" y="10" width="76" height="76" filterUnits="userSpaceOnUse" color-interpolation-filters="sRGB">
<feFlood flood-opacity="0" result="BackgroundImageFix"/>
<feColorMatrix in="SourceAlpha" type="matrix" values="0 0 0 0 0 0 0 0 0 0 0 0 0 0 0 0 0 0 127 0" result="hardAlpha"/>
<feMorphology radius="3" operator="erode" in="SourceAlpha" result="effect1_dropShadow_2_64094"/>
<feOffset dy="10"/>
<feGaussianBlur stdDeviation="7.5"/>
<feComposite in2="hardAlpha" operator="out"/>
<feColorMatrix type="matrix" values="0 0 0 0 0 0 0 0 0 0 0 0 0 0 0 0 0 0 0.1 0"/>
<feBlend mode="normal" in2="BackgroundImageFix" result="effect1_dropShadow_2_64094"/>
<feColorMatrix in="SourceAlpha" type="matrix" values="0 0 0 0 0 0 0 0 0 0 0 0 0 0 0 0 0 0 127 0" result="hardAlpha"/>
<feMorphology radius="4" operator="erode" in="SourceAlpha" result="effect2_dropShadow_2_64094"/>
<feOffset dy="4"/>
<feGaussianBlur stdDeviation="3"/>
<feComposite in2="hardAlpha" operator="out"/>
<feColorMatrix type="matrix" values="0 0 0 0 0 0 0 0 0 0 0 0 0 0 0 0 0 0 0.1 0"/>
<feBlend mode="normal" in2="effect1_dropShadow_2_64094" result="effect2_dropShadow_2_64094"/>
<feBlend mode="normal" in="SourceGraphic" in2="effect2_dropShadow_2_64094" result="shape"/>
</filter>
<filter id="filter4_dd_2_64094" x="11" y="75" width="104" height="46" filterUnits="userSpaceOnUse" color-interpolation-filters="sRGB">
<feFlood flood-opacity="0" result="BackgroundImageFix"/>
<feColorMatrix in="SourceAlpha" type="matrix" values="0 0 0 0 0 0 0 0 0 0 0 0 0 0 0 0 0 0 127 0" result="hardAlpha"/>
<feMorphology radius="1" operator="erode" in="SourceAlpha" result="effect1_dropShadow_2_64094"/>
<feOffset dy="4"/>
<feGaussianBlur stdDeviation="3"/>
<feComposite in2="hardAlpha" operator="out"/>
<feColorMatrix type="matrix" values="0 0 0 0 0 0 0 0 0 0 0 0 0 0 0 0 0 0 0.1 0"/>
<feBlend mode="normal" in2="BackgroundImageFix" result="effect1_dropShadow_2_64094"/>
<feColorMatrix in="SourceAlpha" type="matrix" values="0 0 0 0 0 0 0 0 0 0 0 0 0 0 0 0 0 0 127 0" result="hardAlpha"/>
<feMorphology radius="2" operator="erode" in="SourceAlpha" result="effect2_dropShadow_2_64094"/>
<feOffset dy="2"/>
<feGaussianBlur stdDeviation="2"/>
<feComposite in2="hardAlpha" operator="out"/>
<feColorMatrix type="matrix" values="0 0 0 0 0 0 0 0 0 0 0 0 0 0 0 0 0 0 0.1 0"/>
<feBlend mode="normal" in2="effect1_dropShadow_2_64094" result="effect2_dropShadow_2_64094"/>
<feBlend mode="normal" in="SourceGraphic" in2="effect2_dropShadow_2_64094" result="shape"/>
</filter>
<filter id="filter5_dd_2_64094" x="112.591" y="75" width="99" height="46" filterUnits="userSpaceOnUse" color-interpolation-filters="sRGB">
<feFlood flood-opacity="0" result="BackgroundImageFix"/>
<feColorMatrix in="SourceAlpha" type="matrix" values="0 0 0 0 0 0 0 0 0 0 0 0 0 0 0 0 0 0 127 0" result="hardAlpha"/>
<feMorphology radius="1" operator="erode" in="SourceAlpha" result="effect1_dropShadow_2_64094"/>
<feOffset dy="4"/>
<feGaussianBlur stdDeviation="3"/>
<feComposite in2="hardAlpha" operator="out"/>
<feColorMatrix type="matrix" values="0 0 0 0 0 0 0 0 0 0 0 0 0 0 0 0 0 0 0.1 0"/>
<feBlend mode="normal" in2="BackgroundImageFix" result="effect1_dropShadow_2_64094"/>
<feColorMatrix in="SourceAlpha" type="matrix" values="0 0 0 0 0 0 0 0 0 0 0 0 0 0 0 0 0 0 127 0" result="hardAlpha"/>
<feMorphology radius="2" operator="erode" in="SourceAlpha" result="effect2_dropShadow_2_64094"/>
<feOffset dy="2"/>
<feGaussianBlur stdDeviation="2"/>
<feComposite in2="hardAlpha" operator="out"/>
<feColorMatrix type="matrix" values="0 0 0 0 0 0 0 0 0 0 0 0 0 0 0 0 0 0 0.1 0"/>
<feBlend mode="normal" in2="effect1_dropShadow_2_64094" result="effect2_dropShadow_2_64094"/>
<feBlend mode="normal" in="SourceGraphic" in2="effect2_dropShadow_2_64094" result="shape"/>
</filter>
<filter id="filter6_dd_2_64094" x="174.898" y="842.364" width="80" height="80" filterUnits="userSpaceOnUse" color-interpolation-filters="sRGB">
<feFlood flood-opacity="0" result="BackgroundImageFix"/>
<feColorMatrix in="SourceAlpha" type="matrix" values="0 0 0 0 0 0 0 0 0 0 0 0 0 0 0 0 0 0 127 0" result="hardAlpha"/>
<feMorphology radius="3" operator="erode" in="SourceAlpha" result="effect1_dropShadow_2_64094"/>
<feOffset dy="10"/>
<feGaussianBlur stdDeviation="7.5"/>
<feComposite in2="hardAlpha" operator="out"/>
<feColorMatrix type="matrix" values="0 0 0 0 0 0 0 0 0 0 0 0 0 0 0 0 0 0 0.1 0"/>
<feBlend mode="normal" in2="BackgroundImageFix" result="effect1_dropShadow_2_64094"/>
<feColorMatrix in="SourceAlpha" type="matrix" values="0 0 0 0 0 0 0 0 0 0 0 0 0 0 0 0 0 0 127 0" result="hardAlpha"/>
<feMorphology radius="4" operator="erode" in="SourceAlpha" result="effect2_dropShadow_2_64094"/>
<feOffset dy="4"/>
<feGaussianBlur stdDeviation="3"/>
<feComposite in2="hardAlpha" operator="out"/>
<feColorMatrix type="matrix" values="0 0 0 0 0 0 0 0 0 0 0 0 0 0 0 0 0 0 0.1 0"/>
<feBlend mode="normal" in2="effect1_dropShadow_2_64094" result="effect2_dropShadow_2_64094"/>
<feBlend mode="normal" in="SourceGraphic" in2="effect2_dropShadow_2_64094" result="shape"/>
</filter>
<linearGradient id="paint0_linear_2_64094" x1="215" y1="0" x2="215" y2="933" gradientUnits="userSpaceOnUse">
<stop stop-color="#F5F5F5"/>
<stop offset="0.5" stop-color="#E5E5E5"/>
<stop offset="1" stop-color="white"/>
</linearGradient>
<clipPath id="clip0_2_64094">
<rect width="430" height="932" fill="white"/>
</clipPath>
<clipPath id="clip1_2_64094">
<rect width="430" height="933" fill="white"/>
</clipPath>
<clipPath id="clip2_2_64094">
<rect width="24" height="32" fill="white" transform="translate(85.9546 279.705)"/>
</clipPath>
<clipPath id="clip3_2_64094">
<rect width="24" height="32" fill="white" transform="translate(279.375 419.557)"/>
</clipPath>
<clipPath id="clip4_2_64094">
<rect width="36" height="44" fill="white" transform="translate(196.909 444.182)"/>
</clipPath>
<clipPath id="clip5_2_64094">
<rect width="24" height="32" fill="white" transform="translate(150.432 559.409)"/>
</clipPath>
<clipPath id="clip6_2_64094">
<rect width="24" height="32" fill="white" transform="translate(322.364 233.091)"/>
</clipPath>
</defs>
</svg>
